<?xml version="1.0" encoding="utf-8"?>
<!-- Generator: Adobe Illustrator 24.0.0, SVG Export Plug-In . SVG Version: 6.00 Build 0)  -->
<svg version="1.1" id="Layer_1" xmlns="http://www.w3.org/2000/svg" xmlns:xlink="http://www.w3.org/1999/xlink" x="0px" y="0px"
	 viewBox="0 0 210.2 210.1" style="enable-background:new 0 0 210.2 210.1;" xml:space="preserve">
<g id="Layer_1_1_">
	<path d="M52.3,52.1c-7.4,0-14.4,0-21.4,0c-6.4,0-12.7,0-19.1,0.3C5.2,52.8,0.6,56.9,0.4,63.6C0,77.4,0.3,91.2,0.3,105.3
		c14.5,0,28.6,0.2,42.7-0.1c6.1-0.2,10.3-5.6,10.3-12.3c0.1-11.7,0.1-23.3,0-35c0-3.5,0.7-5,4.6-4.9c15.2,0.2,30.5,0.2,45.7,0.2
		c30.7,0,54.2,23.1,53.3,53.7c-0.7,27.4-22.8,49.8-51.8,49.9c-29.5,0.2-59.1,0.4-88.6-0.1C3.1,156.5-0.2,163.6,0,173.2
		c0.3,12.1,0.1,24.2,0.1,36.9c3.7,0,6.7,0,9.8,0c33.3-0.1,66.5,0.4,99.8-0.4c32.5-0.8,58.7-15.2,78.8-40.6
		c33-41.7,27.7-104.9-11.6-140.8C155.7,8.9,130.8-0.4,102.2,0C90.1,0.2,77.9-0.1,65.8,0.2c-9.5,0.2-13.4,4.7-13.4,14.5
		c0,11.5,0.1,23,0.2,34.5C52.5,50,52.4,50.7,52.3,52.1z"/>
</g>
<g id="Layer_2_1_">
	<rect x="-1229" y="-691.2" width="39" height="128"/>
	<rect x="-1031" y="-676.2" width="76" height="198"/>
	<path d="M-766-731.5c-27.1-27.9-60.7-43.1-99.9-44.2c-20.7-0.6-28.3-0.4-49-0.1c-10.2,0.2-15.9,3.9-18,11.8v62.7h63.9v0.6
		c40.8,2.6,71.3,34.4,70.1,75.8c-1.1,38.8-32.4,70.4-73.4,70.6c-41.8,0.2-26.6,0.5-68.4-0.1c-18.9-0.3-23.7,9.7-23.4,23.4
		c0.4,17.1,0.1,34.2,0.1,52.2c5.5,0,10,0,14.6,0c46.4-0.1,35.8,0.2,82.2-0.5c70.7-0.9,132.4-56,141.9-126
		C-718.6-653.7-731.9-696.3-766-731.5z"/>
	<rect x="-1031" y="-771.2" width="73" height="65"/>
</g>
</svg>
