<svg width="29" height="17" viewBox="0 0 29 17" fill="none" xmlns="http://www.w3.org/2000/svg">
<path d="M0 7.54115C3.45915 7.54115 6.91831 7.54115 10.3698 7.54115C15.2187 7.54115 20.06 7.54115 24.909 7.54115C24.993 7.54115 25.077 7.54115 25.161 7.54115C25.2144 7.54115 25.2831 7.55656 25.3137 7.49494C25.3366 7.43332 25.2755 7.39481 25.2373 7.35629C24.9624 7.07901 24.6875 6.80172 24.4202 6.52444C22.9465 5.03788 21.4651 3.54361 19.9913 2.05705C19.724 1.78747 19.724 1.78747 19.9837 1.52559C20.2891 1.21749 20.6022 0.909398 20.9076 0.593601C21.0145 0.478065 21.1062 0.46266 21.2131 0.585898C21.2513 0.632112 21.2894 0.670624 21.3353 0.709136C23.817 3.21241 26.3064 5.72339 28.7881 8.22666C29.0706 8.51165 29.0706 8.51165 28.7881 8.79664C26.2987 11.3076 23.8017 13.8186 21.32 16.345C21.1138 16.5529 20.9916 16.5529 20.8084 16.3373C20.5487 16.0369 20.2586 15.7519 19.9684 15.49C19.7622 15.3052 19.7851 15.1819 19.976 14.9894C21.6942 13.2717 23.397 11.5464 25.1075 9.81335C25.1915 9.72863 25.3595 9.6516 25.3137 9.53607C25.2679 9.42053 25.0922 9.48215 24.9777 9.48215C16.7612 9.48215 8.53716 9.48215 0.320716 9.48215C0.213811 9.48215 0.114542 9.48215 0.0076361 9.48215C0 8.84285 0 8.18815 0 7.54115Z" fill="black"/>
</svg>
