<svg width="56" height="16" viewBox="0 0 56 16" fill="none" xmlns="http://www.w3.org/2000/svg">
<path d="M7.59653 5.58392C7.71936 5.40285 7.85383 5.37983 7.96292 5.37983C8.072 5.37983 8.25373 5.40285 8.37662 5.58392C9.34488 6.91386 10.9431 9.56317 12.1221 11.5174C12.891 12.7919 13.4815 13.7707 13.6026 13.8953C14.0574 14.363 14.6812 14.0715 15.0436 13.5411C15.4005 13.0189 15.4995 12.6522 15.4995 12.261C15.4995 11.9946 10.33 2.38016 9.80935 1.57988C9.30868 0.810148 9.1456 0.615723 8.28869 0.615723H7.64744C6.79307 0.615723 6.66961 0.810148 6.16889 1.57988C5.64832 2.38016 0.47876 11.9946 0.47876 12.261C0.47876 12.6522 0.577819 13.0189 0.934651 13.5411C1.2971 14.0715 1.92084 14.363 2.37563 13.8953C2.49679 13.7707 3.08732 12.7919 3.85617 11.5174C5.03513 9.56317 6.62827 6.91386 7.59653 5.58392Z" fill="#000020"/>
<path d="M41.8796 4.82078C44.0088 4.82078 45.702 6.74299 45.702 9.12048C45.702 11.498 44.0088 13.437 41.8796 13.437C40.7396 13.437 39.8511 12.9649 39.2811 12.105V16H36.9172V4.9894H39.2811V6.15285C39.8511 5.29291 40.7396 4.82078 41.8796 4.82078ZM50.8582 4.82078C53.2722 4.82078 55.1332 6.67554 55.1332 9.13736C55.1332 11.5991 53.2722 13.437 50.8582 13.437C48.4273 13.437 46.5831 11.5991 46.5831 9.13736C46.5831 6.67554 48.4273 4.82078 50.8582 4.82078ZM26.2849 1.46533V3.85967H21.574V5.98425H25.7652V8.37856H21.574V10.8741H26.2849V13.2684H19.0928V1.46533H26.2849ZM30.1312 4.9894L31.4892 6.94535L32.8639 4.9894H35.6804L32.8975 8.98558L35.8816 13.2684H33.0316L31.4724 11.0259L29.9133 13.2684H27.0968L30.0642 9.00245L27.2812 4.9894H30.1312ZM41.3432 7.08025C40.1864 7.08025 39.2811 7.9739 39.2811 9.12048C39.2811 10.2839 40.1864 11.1608 41.3432 11.1608C42.4832 11.1608 43.4052 10.2671 43.4052 9.12048C43.4052 7.99078 42.4832 7.08025 41.3432 7.08025ZM50.8582 7.09708C49.7347 7.09708 48.8967 7.95703 48.8967 9.13736C48.8967 10.2839 49.7347 11.1608 50.8582 11.1608C51.9645 11.1608 52.8198 10.2839 52.8198 9.13736C52.8198 7.95703 51.9645 7.09708 50.8582 7.09708Z" fill="#000020"/>
</svg>
