<svg width="73" height="20" viewBox="0 0 73 20" fill="none" xmlns="http://www.w3.org/2000/svg">
<path opacity="0.981" fill-rule="evenodd" clip-rule="evenodd" d="M17.5117 0C20.2586 0 23.0057 0 25.7526 0C25.7591 0.659001 25.7526 1.3166 25.7332 1.97277C23.6666 1.98248 21.5997 1.98573 19.5331 1.98248C19.5331 3.36892 19.5331 4.75538 19.5331 6.14181C21.1204 6.13857 22.7076 6.14181 24.2949 6.15153C24.3078 6.47406 24.3144 6.798 24.3144 7.12334C24.3144 7.44868 24.3078 7.77262 24.2949 8.09515C22.7076 8.10486 21.1204 8.10817 19.5331 8.10486C19.5364 10.5474 19.5331 12.9897 19.5234 15.4323C18.8629 15.4385 18.1923 15.4385 17.5117 15.4323C17.5117 10.2881 17.5117 5.1441 17.5117 0Z" fill="black"/>
<path fill-rule="evenodd" clip-rule="evenodd" d="M10.3589 0.0195312C11.8939 0.263513 12.8625 1.13814 13.2646 2.64341C13.5069 4.38067 12.8526 5.64402 11.3015 6.43345C11.295 6.42698 11.2886 6.42049 11.2821 6.41402C10.9876 6.54993 10.6799 6.62768 10.3589 6.64725C10.3524 6.64725 10.3459 6.64725 10.3394 6.64725C10.333 6.64725 10.3265 6.64725 10.32 6.64725C9.99356 6.65967 9.66964 6.67263 9.34818 6.68612C8.47355 6.68612 7.59893 6.68612 6.7243 6.68612C6.6856 4.47318 6.67264 2.25746 6.68543 0.0389674C7.7426 0.03405 8.7954 0.0275584 9.8438 0.0195312C10.0123 0.0324951 10.1807 0.0454396 10.3491 0.0584035C10.3582 0.0468584 10.3614 0.0338945 10.3589 0.0195312Z" fill="black"/>
<path fill-rule="evenodd" clip-rule="evenodd" d="M6.64717 6.66668C5.39659 6.66836 4.17211 6.66836 2.97373 6.66668C2.96726 6.66668 2.96077 6.66668 2.9543 6.66668C2.95214 6.65469 2.94567 6.64497 2.93486 6.63753C2.76998 6.61936 2.60802 6.58696 2.44896 6.54035C2.21811 6.46814 1.99135 6.38717 1.76869 6.2974C1.04215 5.90796 0.530323 5.33135 0.233234 4.56758C0.231566 4.54823 0.238046 4.53203 0.25267 4.51899C0.133927 4.23272 0.0691403 3.93793 0.0583085 3.63465C0.0531443 3.57343 0.0337081 3.52159 0 3.47916C0 3.39494 0 3.31071 0 3.22649C0.0301338 3.19151 0.04957 3.14939 0.0583085 3.10016C0.0715231 2.73013 0.152508 2.37056 0.30126 2.02145C0.389347 1.84528 0.47681 1.67036 0.563649 1.49668C1.00545 0.834799 1.60797 0.387768 2.37121 0.155584C2.39057 0.153913 2.40676 0.160404 2.4198 0.17502C2.59228 0.108549 2.7672 0.0761487 2.94458 0.0778396C3.10555 0.0498322 3.26753 0.030396 3.43048 0.0195312C4.46707 0.0195312 5.50368 0.0195312 6.54027 0.0195312C6.582 0.0314456 6.62412 0.04439 6.6666 0.0584035C6.66064 2.26168 6.65416 4.46444 6.64717 6.66668Z" fill="black"/>
<path opacity="0.98" fill-rule="evenodd" clip-rule="evenodd" d="M29.1346 0.544004C29.8774 0.527813 30.36 0.871191 30.5826 1.57412C30.6747 2.27862 30.3993 2.78071 29.7565 3.08042C29.0794 3.28003 28.5449 3.08242 28.153 2.48762C27.8605 1.86562 27.961 1.31818 28.4543 0.845264C28.6638 0.688278 28.8906 0.587852 29.1346 0.544004Z" fill="black"/>
<path opacity="0.986" fill-rule="evenodd" clip-rule="evenodd" d="M37.4725 4.76208C38.6535 4.72561 39.6608 5.12081 40.4948 5.94768C40.4983 5.65793 40.5081 5.36963 40.524 5.08277C41.1912 5.07305 41.8587 5.06981 42.5259 5.07305C42.5292 8.36417 42.5259 11.6555 42.5162 14.9466C42.3298 16.9448 41.3483 18.3928 39.5716 19.2906C38.1481 19.9242 36.7165 19.9242 35.2762 19.2906C35.0729 19.1922 34.8786 19.0787 34.6932 18.9504C34.6867 18.9374 34.6801 18.9246 34.6737 18.9116C35.0028 18.3376 35.3365 17.7676 35.6747 17.2012C36.5932 17.822 37.5682 17.9419 38.5998 17.5608C39.696 17.0624 40.3277 16.2169 40.4948 15.0243C40.4982 14.4691 40.5079 13.9151 40.524 13.3626C40.511 13.3495 40.4982 13.3495 40.4851 13.3626C39.5203 14.2879 38.367 14.67 37.0255 14.5093C35.593 14.2739 34.5143 13.5256 33.7894 12.2644C33.1865 11.106 32.9921 9.90099 33.2063 8.6493C33.4366 7.45942 34.01 6.47142 34.9264 5.68529C35.6782 5.10711 36.527 4.79935 37.4725 4.76208ZM37.5891 6.74456C38.7483 6.71403 39.6132 7.21287 40.1839 8.24114C40.5201 8.94784 40.5979 9.68641 40.4171 10.4569C40.1434 11.4028 39.5506 12.0603 38.6387 12.4296C37.5186 12.7398 36.5759 12.4514 35.8107 11.5647C35.0968 10.5871 34.9608 9.53112 35.4026 8.39663C35.8508 7.45981 36.5796 6.90911 37.5891 6.74456Z" fill="black"/>
<path opacity="0.985" fill-rule="evenodd" clip-rule="evenodd" d="M49.9704 4.76206C51.1628 4.73932 52.1379 5.18635 52.8956 6.10315C52.9793 6.23549 53.0668 6.36507 53.1579 6.49187C54.0961 5.16926 55.3725 4.60886 56.9869 4.81065C58.3163 5.10318 59.2201 5.89034 59.6982 7.17214C59.817 7.50679 59.9011 7.85016 59.9509 8.20225C59.9828 10.6121 59.9894 13.0222 59.9703 15.4325C59.3103 15.4327 58.6461 15.4327 57.9781 15.4325C57.9814 13.2298 57.9781 11.0269 57.9684 8.82421C57.8835 7.74822 57.3231 7.06473 56.2872 6.77369C55.3548 6.64353 54.626 6.96423 54.1006 7.73578C53.9377 7.998 53.8341 8.2831 53.7896 8.59097C53.7799 10.8714 53.7766 13.152 53.7799 15.4325C53.106 15.4325 52.4324 15.4325 51.7585 15.4325C51.7618 13.1779 51.7585 10.9233 51.7488 8.66872C51.5867 7.65157 51.0069 7.01989 50.0093 6.77369C49.082 6.66223 48.3595 7.00236 47.8422 7.79409C47.6824 8.07669 47.5852 8.38126 47.5506 8.70759C47.5409 10.9492 47.5376 13.1909 47.5409 15.4325C46.8736 15.4325 46.2062 15.4325 45.539 15.4325C45.5366 11.9837 45.5302 8.54024 45.5195 5.10219C46.1905 5.07317 46.8643 5.06345 47.5409 5.07303C47.5376 5.3776 47.5409 5.6821 47.5506 5.98653C48.1695 5.20283 48.9761 4.79467 49.9704 4.76206Z" fill="black"/>
<path opacity="0.99" fill-rule="evenodd" clip-rule="evenodd" d="M66.8604 4.76168C68.2769 4.72536 69.4883 5.20479 70.4949 6.19996C70.5112 5.82428 70.5177 5.45499 70.5144 5.0921C71.1816 5.07266 71.8488 5.06619 72.5163 5.07266C72.5163 8.52588 72.5163 11.9789 72.5163 15.4321C71.8488 15.4385 71.1816 15.4321 70.5144 15.4127C70.5167 15.0436 70.5101 14.6743 70.4949 14.3048C69.74 15.058 68.8393 15.5213 67.7933 15.6945C65.646 15.9291 63.9842 15.1419 62.8079 13.333C61.9935 11.8722 61.7733 10.3562 62.1471 8.78496C62.4828 7.4422 63.2116 6.36997 64.3337 5.56828C65.1057 5.07768 65.948 4.8088 66.8604 4.76168ZM66.977 6.74417C68.1356 6.70155 69.0716 7.13561 69.7855 8.04639C70.5857 9.20653 70.7217 10.4504 70.1937 11.7781C69.6574 12.8982 68.7795 13.5558 67.5601 13.7509C66.4077 13.8162 65.4714 13.3983 64.7515 12.4973C64.0649 11.5342 63.8511 10.4716 64.1101 9.30974C64.417 8.2081 65.0942 7.42093 66.1412 6.94825C66.2625 6.90654 66.3855 6.86767 66.5105 6.83163C66.6751 6.81152 66.8306 6.78236 66.977 6.74417Z" fill="black"/>
<path opacity="0.985" fill-rule="evenodd" clip-rule="evenodd" d="M28.2793 5.07275C28.9531 5.07275 29.6268 5.07275 30.3007 5.07275C30.304 8.51936 30.3007 11.9662 30.2909 15.4128C29.6218 15.4322 28.9512 15.4386 28.2793 15.4322C28.2793 11.979 28.2793 8.52597 28.2793 5.07275Z" fill="black"/>
<path opacity="0.998" fill-rule="evenodd" clip-rule="evenodd" d="M2.97373 6.6665C4.17211 6.66818 5.39659 6.66818 6.64717 6.6665C6.66013 6.6665 6.6666 6.67298 6.6666 6.68594C6.6666 7.63831 6.6666 8.59068 6.6666 9.54305C6.66713 9.84587 6.66713 10.1502 6.6666 10.4565C6.6666 11.4089 6.6666 12.3613 6.6666 13.3137C5.53931 13.3137 4.41201 13.3137 3.28471 13.3137C3.24199 13.3247 3.19665 13.3247 3.14866 13.3137C3.09727 13.3094 3.05192 13.3094 3.0126 13.3137C2.91702 13.3071 2.82308 13.294 2.73078 13.2748C2.72431 13.2812 2.71782 13.2878 2.71134 13.2942C2.65488 13.2725 2.5998 13.253 2.54614 13.2359C2.50697 13.2083 2.46163 13.1953 2.41008 13.197C1.96566 13.0775 1.57046 12.8701 1.22448 12.5751C1.21151 12.5492 1.19208 12.5298 1.16617 12.5168C1.00421 12.3937 0.861669 12.2511 0.738574 12.0892C0.739993 12.0594 0.727035 12.04 0.699702 12.0309C0.433638 11.7133 0.252235 11.3504 0.155489 10.9425C0.149738 10.9055 0.136782 10.8731 0.116617 10.8453C0.101054 10.8153 0.0945764 10.7829 0.0971808 10.7481C0.0902168 10.6861 0.0772587 10.6278 0.0583085 10.5732C0.0405497 10.5104 0.0340696 10.4457 0.0388723 10.3788C0.0487886 10.3226 0.0358306 10.2773 0 10.2428C0 10.0742 0 9.90592 0 9.73741C0.0345925 9.70845 0.0475506 9.66958 0.0388723 9.62079C0.0799837 9.18659 0.203079 8.77843 0.408159 8.39632C0.435492 8.38718 0.448451 8.36775 0.447032 8.33801C0.45351 8.32499 0.45999 8.31216 0.466468 8.29914C0.493801 8.29 0.506759 8.27057 0.50534 8.24083C0.539449 8.17902 0.578321 8.12071 0.621957 8.0659C0.64929 8.05677 0.662248 8.03728 0.660829 8.0076C1.24685 7.23221 2.01782 6.78518 2.97373 6.6665Z" fill="black"/>
<path opacity="0.998" fill-rule="evenodd" clip-rule="evenodd" d="M10.32 6.64697C10.3265 6.67288 10.333 6.67288 10.3394 6.64697C10.3459 6.64697 10.3524 6.64697 10.3589 6.64697C11.613 6.8523 12.5168 7.53256 13.0702 8.68777C13.5318 9.90991 13.3763 11.0436 12.6038 12.0891C11.7884 13.0197 10.7907 13.4345 9.61059 13.333C8.35366 13.1301 7.45312 12.4564 6.90897 11.3116C6.84664 11.1311 6.78833 10.9497 6.73404 10.7674C6.71585 10.6973 6.70613 10.6259 6.70489 10.5536C6.71227 10.5109 6.69931 10.4786 6.66602 10.4565C6.66654 10.1501 6.66654 9.84577 6.66602 9.54295C6.68883 9.52332 6.70178 9.49728 6.70489 9.46521C6.82658 8.66172 7.19586 7.99114 7.81275 7.45357C8.31686 7.03929 8.88699 6.78662 9.52313 6.69556C9.46517 6.68588 9.40686 6.68264 9.34821 6.68584C9.66966 6.67236 9.99358 6.65939 10.32 6.64697Z" fill="black"/>
<path opacity="0.998" fill-rule="evenodd" clip-rule="evenodd" d="M3.14866 13.314C3.19665 13.325 3.24199 13.325 3.28471 13.314C4.40688 13.327 5.53093 13.34 6.65689 13.3528C6.6666 14.5126 6.66985 15.6721 6.6666 16.8319C6.67383 16.9641 6.66089 17.0937 6.62773 17.2206C6.59873 17.2937 6.5793 17.3714 6.56942 17.4539C6.30082 18.484 5.68533 19.2323 4.72299 19.6987C4.62878 19.7394 4.5316 19.7685 4.43145 19.7862C4.36836 19.7969 4.31005 19.8163 4.25652 19.8445C4.18624 19.8523 4.12144 19.8717 4.06216 19.9028C4.02235 19.9275 3.98348 19.9339 3.94554 19.9222C3.89332 19.9191 3.84148 19.9222 3.79005 19.932C3.77925 19.9393 3.77277 19.9491 3.77062 19.9611C3.72527 19.9611 3.67991 19.9611 3.63456 19.9611C3.58154 19.9547 3.53618 19.9677 3.49851 20C3.42076 20 3.34302 20 3.26528 20C3.26312 19.9879 3.25665 19.9782 3.24584 19.9708C3.18137 19.9611 3.11659 19.9578 3.05148 19.9611C3.04501 19.9611 3.03851 19.9611 3.03204 19.9611C2.90629 19.9333 2.77671 19.9139 2.64332 19.9028C2.63685 19.9028 2.63035 19.9028 2.62388 19.9028C2.5646 19.8717 2.4998 19.8523 2.42952 19.8445C2.39469 19.847 2.36231 19.8406 2.33234 19.8251C2.30746 19.7973 2.27506 19.7842 2.23516 19.7862C2.15036 19.778 2.07261 19.7522 2.00192 19.7084C1.98657 19.691 1.96713 19.6779 1.94362 19.6696C1.6857 19.5671 1.45246 19.4245 1.24391 19.242C1.21649 19.1951 1.17762 19.1627 1.1273 19.1448C0.808266 18.8721 0.562074 18.5547 0.388723 18.1924C0.379225 18.1633 0.366267 18.1374 0.349851 18.1147C0.255784 17.9598 0.190995 17.7913 0.155489 17.6093C0.153485 17.5483 0.134049 17.4966 0.0971808 17.4539C0.0971808 17.4344 0.0971808 17.415 0.0971808 17.3955C0.0847222 17.2883 0.0652861 17.1845 0.0388723 17.0846C0.0388723 17.0651 0.0388723 17.0457 0.0388723 17.0263C0.0472707 16.9606 0.0343145 16.9023 0 16.8513C0 16.6828 0 16.5145 0 16.346C0.033298 16.3238 0.0462561 16.2916 0.0388723 16.2488C0.0328471 16.1864 0.0393252 16.1281 0.0583085 16.0739C0.0793151 16.0131 0.0922712 15.9483 0.0971808 15.8795C0.128292 15.8203 0.147728 15.7555 0.155489 15.6852C0.155489 15.6788 0.155489 15.6721 0.155489 15.6657C0.186533 15.6201 0.205969 15.5684 0.213798 15.5102C0.394163 14.9616 0.705142 14.5015 1.14673 14.1303C1.19045 14.119 1.22283 14.0932 1.24391 14.0525C1.4484 13.8757 1.67516 13.7332 1.92418 13.6249C1.97582 13.6166 2.02119 13.5971 2.06023 13.5666C2.1215 13.532 2.18628 13.5029 2.25459 13.4792C2.30546 13.4632 2.3573 13.4535 2.41008 13.45C2.48037 13.4422 2.54517 13.4228 2.60445 13.3917C2.61092 13.3917 2.61741 13.3917 2.62388 13.3917C2.744 13.3785 2.86061 13.3591 2.97373 13.3334C2.9867 13.3334 2.99964 13.3334 3.01261 13.3334C3.06234 13.3392 3.10771 13.3328 3.14866 13.314Z" fill="black"/>
</svg>
