<svg width="20" height="20" viewBox="0 0 20 20" fill="none" xmlns="http://www.w3.org/2000/svg">
<path fill-rule="evenodd" clip-rule="evenodd" d="M5.39186 0H14.6082C17.5688 0 20 2.44413 20 5.40503V14.595C20 17.5629 17.5618 20 14.6082 20H5.39186C2.43122 20 1.48906e-05 17.5559 1.48906e-05 14.595V5.41201C-0.00695132 2.44413 2.43122 0 5.39186 0ZM15.3675 3.49162C15.9875 3.49162 16.5099 4.01536 16.5099 4.63687C16.5099 5.25838 15.9875 5.78212 15.3675 5.78212C14.6987 5.78212 14.225 5.25838 14.225 4.63687C14.218 4.02235 14.6987 3.49162 15.3675 3.49162ZM9.97562 4.54609H10.0244C12.985 4.54609 15.465 7.03212 15.465 10C15.465 13.0168 12.985 15.4539 10.0244 15.4539H9.97562C7.01498 15.4539 4.58378 13.0098 4.58378 10C4.57682 7.03911 7.01498 4.54609 9.97562 4.54609ZM9.97562 6.41061H10.0244C11.9819 6.41061 13.605 8.03771 13.605 10C13.605 12.0112 11.9819 13.6383 10.0244 13.6383H9.97562C8.01812 13.6383 6.395 12.0112 6.395 10C6.395 8.03771 8.01812 6.41061 9.97562 6.41061ZM5.43366 1.72486H14.5524C16.6075 1.72486 18.2794 3.40084 18.2794 5.46089V14.5531C18.2794 16.6131 16.6075 18.2891 14.5524 18.2891H5.43366C3.37863 18.2891 1.70674 16.6131 1.70674 14.5531V5.45391C1.7137 3.40084 3.38559 1.72486 5.43366 1.72486Z" fill="black"/>
</svg>
