<svg width="20" height="20" viewBox="0 0 20 20" fill="none" xmlns="http://www.w3.org/2000/svg">
<path fill-rule="evenodd" clip-rule="evenodd" d="M0.392003 6.7343H4.35907V20H0.392003V6.7343ZM2.35202 0C3.67699 0 4.75108 1.07686 4.75108 2.38783C4.75108 3.70659 3.66915 4.77565 2.35202 4.77565C1.02705 4.77565 0 3.69879 0 2.38783C0 1.07686 1.02705 0 2.35202 0ZM6.71109 6.7343H10.6311V8.58369C11.47 7.36637 12.842 6.58603 14.41 6.58603H15.492C17.9929 6.58603 20 8.63832 20 11.073V13.0706V15.4584V19.9922H16.08V19.9454V18.7749V12.8209C16.0329 11.3071 14.998 10.1366 13.4849 10.1366C11.9639 10.1366 10.6938 11.3071 10.639 12.8209V17.9945V19.9922H6.71894V6.7343H6.71109Z" fill="black"/>
</svg>
