<svg width="74" height="20" viewBox="0 0 74 20" fill="none" xmlns="http://www.w3.org/2000/svg">
<path d="M6.161 2.75053C5.41486 1.86526 4.77235 0.966154 4.64109 0.779417C4.62727 0.765585 4.60654 0.765585 4.59272 0.779417C4.46146 0.966154 3.81895 1.86526 3.07281 2.75053C-3.33153 10.9185 4.08149 16.4307 4.08149 16.4307L4.14366 16.4722C4.19892 17.3229 4.3371 18.5471 4.3371 18.5471H4.61345H4.8898C4.8898 18.5471 5.02797 17.3298 5.08324 16.4722L5.14542 16.4238C5.15232 16.4307 12.5654 10.9185 6.161 2.75053ZM4.61345 16.3062C4.61345 16.3062 4.28184 16.0227 4.19202 15.8775V15.8636L4.59272 6.9694C4.59272 6.94173 4.63418 6.94173 4.63418 6.9694L5.03488 15.8636V15.8775C4.94507 16.0227 4.61345 16.3062 4.61345 16.3062Z" fill="black"/>
<path d="M18.4866 14.4914L15.3975 6.94662L15.3906 6.92578H12.9872V7.43293H13.3751C13.4928 7.43293 13.6036 7.48156 13.6868 7.56493C13.7699 7.6483 13.8114 7.75948 13.8114 7.87756L13.7422 15.471C13.7422 15.7072 13.5483 15.9017 13.3128 15.9087L12.918 15.9156V16.4158H15.2591V15.9156L15.0166 15.9087C14.7811 15.9017 14.5872 15.7072 14.5872 15.471V8.31524L17.9534 16.4158C18.0018 16.5339 18.1126 16.6103 18.2373 16.6103C18.362 16.6103 18.4728 16.5339 18.5213 16.4158L21.8112 8.49585L21.8597 15.471C21.8597 15.7142 21.6658 15.9087 21.4234 15.9156H21.174V16.4158H23.9168V15.9156H23.5428C23.3073 15.9156 23.1133 15.7142 23.1064 15.4779L23.0857 7.88448C23.0857 7.64135 23.2796 7.44682 23.5151 7.43988L23.9168 7.43293V6.92578H21.5757L18.4866 14.4914Z" fill="black"/>
<path d="M40.0253 15.7835C39.9489 15.707 39.9072 15.6026 39.9072 15.4773V11.7471C39.9072 11.0373 39.6989 10.4805 39.2822 10.0839C38.8726 9.68714 38.3031 9.48535 37.5948 9.48535C36.6018 9.48535 35.8171 9.88899 35.2685 10.6824C35.2616 10.6963 35.2407 10.7033 35.2199 10.7033C35.199 10.7033 35.1852 10.6893 35.1852 10.6685L34.9282 9.67323H34.4977L33.3936 10.3065V10.6545H33.6783C33.8102 10.6545 33.9213 10.6893 33.9977 10.7589C34.0741 10.8285 34.1157 10.9329 34.1157 11.079V15.4703C34.1157 15.5956 34.0741 15.7 33.9977 15.7766C33.9213 15.8531 33.8172 15.8949 33.6922 15.8949H33.4144V16.4029H35.9559V15.8949H35.6782C35.5532 15.8949 35.449 15.8531 35.3727 15.7766C35.2963 15.7 35.2546 15.5956 35.2546 15.4703V12.5614C35.2546 12.1925 35.3379 11.8237 35.4907 11.4618C35.6504 11.1069 35.8865 10.8076 36.199 10.578C36.5115 10.3483 36.8865 10.2369 37.317 10.2369C37.8031 10.2369 38.1712 10.39 38.4003 10.6963C38.6295 11.0025 38.7476 11.3992 38.7476 11.8724V15.4634C38.7476 15.5886 38.7058 15.693 38.6295 15.7696C38.5531 15.8462 38.4489 15.8879 38.3239 15.8879H38.0462V16.3959H40.5878V15.8879H40.31C40.2058 15.9018 40.1086 15.8601 40.0253 15.7835Z" fill="black"/>
<path d="M63.2459 7.49384C62.5434 7.11975 61.7582 6.92578 60.911 6.92578H57.605V7.43149H57.9287C58.0527 7.43149 58.1629 7.47999 58.2731 7.59083C58.3764 7.69473 58.4315 7.81254 58.4315 7.93719V15.3914C58.4315 15.516 58.3764 15.6338 58.2731 15.7377C58.1698 15.8416 58.0527 15.8971 57.9287 15.8971H57.605V16.4028H60.911C61.7582 16.4028 62.5434 16.2088 63.2459 15.8347C63.9484 15.4606 64.5201 14.9064 64.9334 14.1998C65.3466 13.4932 65.5601 12.6411 65.5601 11.6712C65.5601 10.7014 65.3466 9.85618 64.9334 9.14264C64.5132 8.42218 63.9484 7.87487 63.2459 7.49384ZM64.2308 11.6574C64.2308 12.5441 64.0724 13.2923 63.7625 13.895C63.4526 14.4977 63.0392 14.948 62.5296 15.239C62.0199 15.5299 61.4551 15.6754 60.849 15.6754H60.1809C60.057 15.6754 59.9468 15.6269 59.8366 15.516C59.7332 15.4121 59.6782 15.2944 59.6782 15.1697V8.13815C59.6782 8.01342 59.7264 7.9026 59.8366 7.79172C59.9398 7.68782 60.057 7.6324 60.1809 7.6324H60.849C61.4551 7.6324 62.0199 7.77788 62.5296 8.06883C63.0392 8.35978 63.4526 8.81012 63.7625 9.41277C64.0724 10.0224 64.2308 10.7775 64.2308 11.6574Z" fill="black"/>
<path d="M73.3749 12.1631C73.0691 11.8098 72.4791 11.5119 71.7853 11.3525C72.7433 10.8745 73.2359 10.2025 73.2359 9.33661C73.2359 8.86552 73.1113 8.44293 72.8609 8.08267C72.6112 7.72247 72.257 7.43149 71.806 7.23059C71.3543 7.02969 70.8265 6.92578 70.2295 6.92578H66.4873V7.43149H66.7858C66.9108 7.43149 67.0219 7.47999 67.133 7.59083C67.2371 7.69473 67.2927 7.81254 67.2927 7.93719V15.3914C67.2927 15.516 67.2371 15.6338 67.133 15.7377C67.0289 15.8416 66.9108 15.8971 66.7858 15.8971H66.4595V16.4028H70.5214C71.1392 16.4028 71.7154 16.2989 72.2363 16.091C72.7572 15.8832 73.1736 15.5784 73.4724 15.1766C73.7775 14.7748 73.9304 14.2829 73.9304 13.7148C73.9235 13.1052 73.7429 12.5856 73.3749 12.1631ZM68.716 15.523C68.6119 15.4191 68.5563 15.3013 68.5563 15.1766V11.8305H70.4868C71.1668 11.8305 71.6877 12.0037 72.0488 12.3501C72.4099 12.6965 72.5905 13.1468 72.5905 13.701C72.5905 14.0335 72.5068 14.3591 72.3546 14.657C72.1948 14.9619 71.9582 15.2043 71.6393 15.3914C71.3266 15.5784 70.9379 15.6754 70.4868 15.6754H69.0631C68.9382 15.6754 68.8271 15.6269 68.716 15.523ZM68.5633 11.117V8.14506C68.5633 8.02034 68.6119 7.90952 68.7229 7.79863C68.8271 7.69473 68.9451 7.63932 69.0701 7.63932H69.9867C70.6459 7.63932 71.1322 7.80562 71.438 8.12424C71.7431 8.44985 71.8959 8.86552 71.8959 9.37818C71.8959 9.90468 71.75 10.3273 71.4657 10.6459C71.1807 10.9577 70.7504 11.117 70.1811 11.117H68.5633Z" fill="black"/>
<path d="M30.35 9.92724C29.8194 9.63726 29.2269 9.48535 28.5861 9.48535C27.9453 9.48535 27.3459 9.63034 26.8222 9.92724C26.2916 10.2172 25.8713 10.6383 25.5613 11.1699C25.2513 11.7015 25.0928 12.3229 25.0928 13.0133C25.0928 13.7037 25.2513 14.3251 25.5613 14.8567C25.8713 15.3883 26.2916 15.8094 26.8222 16.0994C27.3528 16.3893 27.9453 16.5412 28.5861 16.5412C29.2269 16.5412 29.8264 16.3962 30.35 16.0994C30.8806 15.8094 31.3009 15.3883 31.6109 14.8567C31.921 14.3251 32.0795 13.7037 32.0795 13.0133C32.0795 12.3229 31.921 11.7015 31.6109 11.1699C31.3009 10.6383 30.8806 10.2172 30.35 9.92724ZM30.8599 13.0133C30.8599 13.8625 30.6532 14.5529 30.2397 15.0499C29.8333 15.547 29.2752 15.8025 28.5861 15.8025C27.8971 15.8025 27.339 15.547 26.9325 15.0499C26.519 14.5529 26.3123 13.8625 26.3123 13.0133C26.3123 12.1641 26.519 11.4737 26.9325 10.9766C27.339 10.4795 27.8971 10.2241 28.5861 10.2241C29.2752 10.2241 29.8333 10.4795 30.2397 10.9766C30.6532 11.4737 30.8599 12.1641 30.8599 13.0133Z" fill="black"/>
<path d="M54.7687 9.92724C54.2381 9.63726 53.6456 9.48535 53.0048 9.48535C52.364 9.48535 51.7646 9.63034 51.2409 9.92724C50.7103 10.2172 50.29 10.6383 49.98 11.1699C49.67 11.7015 49.5115 12.3229 49.5115 13.0133C49.5115 13.7037 49.67 14.3251 49.98 14.8567C50.29 15.3883 50.7103 15.8094 51.2409 16.0994C51.7715 16.3893 52.364 16.5412 53.0048 16.5412C53.6456 16.5412 54.2451 16.3962 54.7687 16.0994C55.2993 15.8094 55.7196 15.3883 56.0296 14.8567C56.3397 14.3251 56.4982 13.7037 56.4982 13.0133C56.4982 12.3229 56.3397 11.7015 56.0296 11.1699C55.7196 10.6383 55.2924 10.2172 54.7687 9.92724ZM55.2786 13.0133C55.2786 13.8625 55.0718 14.5529 54.6584 15.0499C54.2519 15.547 53.6938 15.8025 53.0048 15.8025C52.3158 15.8025 51.7577 15.547 51.3512 15.0499C50.9377 14.5529 50.731 13.8625 50.731 13.0133C50.731 12.1572 50.9377 11.4737 51.3512 10.9766C51.7577 10.4795 52.3158 10.2241 53.0048 10.2241C53.6938 10.2241 54.2519 10.4795 54.6584 10.9766C55.065 11.4737 55.2786 12.1641 55.2786 13.0133Z" fill="black"/>
<path d="M44.9207 9.48535C44.3655 9.48535 43.859 9.60323 43.401 9.83905C42.943 10.0749 42.5822 10.394 42.3254 10.8031C42.0687 11.2054 41.9369 11.6563 41.9369 12.1348C41.9369 12.5648 42.034 12.9602 42.2352 13.3139C42.4295 13.6538 42.6932 13.9381 43.0263 14.1739L42.034 15.5195C41.9091 15.6859 41.8952 15.9079 41.9854 16.0882C42.0826 16.2755 42.263 16.3865 42.4712 16.3865H42.7557C42.4781 16.5737 42.256 16.7957 42.1034 17.0592C41.923 17.3574 41.8328 17.6695 41.8328 17.9886C41.8328 18.5851 42.0965 19.0775 42.6169 19.4451C43.1304 19.8127 43.852 20 44.7611 20C45.3926 20 45.9963 19.896 46.5445 19.6948C47.0996 19.4937 47.5506 19.1954 47.8837 18.8071C48.2238 18.4186 48.3973 17.947 48.3973 17.406C48.3973 16.8373 48.189 16.435 47.7033 16.0466C47.287 15.7206 46.6347 15.5472 45.8228 15.5472H43.0471C43.0402 15.5472 43.0332 15.5403 43.0332 15.5403C43.0332 15.5403 43.0263 15.5264 43.0332 15.5195L43.7549 14.5485C43.9492 14.6386 44.1296 14.6941 44.2892 14.7288C44.4557 14.7635 44.6431 14.7773 44.8513 14.7773C45.4342 14.7773 45.9616 14.6595 46.4196 14.4236C46.8776 14.1878 47.2454 13.8688 47.5091 13.4595C47.7727 13.0573 47.9045 12.6065 47.9045 12.1279C47.9045 11.6146 47.6547 10.6783 46.9747 10.1997C46.9747 10.1928 46.9817 10.1928 46.9817 10.1928L48.4736 10.3592V9.67261H46.0865C45.7118 9.55473 45.3232 9.48535 44.9207 9.48535ZM45.7534 13.8271C45.4897 13.9658 45.2052 14.0421 44.9207 14.0421C44.4558 14.0421 44.0464 13.8757 43.6994 13.5497C43.3525 13.2237 43.179 12.7452 43.179 12.1348C43.179 11.5245 43.3525 11.0459 43.6994 10.7199C44.0464 10.394 44.4558 10.2275 44.9207 10.2275C45.2122 10.2275 45.4897 10.2968 45.7534 10.4425C46.0171 10.5812 46.2322 10.7962 46.4057 11.0806C46.5722 11.365 46.6624 11.7187 46.6624 12.1348C46.6624 12.5579 46.5791 12.9116 46.4057 13.1891C46.2391 13.4734 46.0171 13.6884 45.7534 13.8271ZM43.8729 16.3795H45.7534C46.2739 16.3795 46.6069 16.4835 46.829 16.7055C47.0511 16.9274 47.1621 17.2256 47.1621 17.5725C47.1621 18.0788 46.9608 18.4949 46.5584 18.8071C46.1559 19.1192 45.6146 19.2787 44.9485 19.2787C44.3655 19.2787 43.8798 19.1469 43.5259 18.8972C43.172 18.6475 42.9916 18.266 42.9916 17.7806C42.9916 17.4754 43.0749 17.191 43.2414 16.9413C43.4079 16.6916 43.6092 16.5113 43.8729 16.3795Z" fill="black"/>
</svg>
