<svg width="77" height="16" viewBox="0 0 77 16" fill="none" xmlns="http://www.w3.org/2000/svg">
<path d="M51.2803 0.65332H64.5395V3.10801H59.2822V15.9807H56.6535V3.10801H51.2803V0.65332Z" fill="black"/>
<path d="M29.4777 0.65332V3.10801H18.8279V7.05098H27.371V9.50567H18.8279V13.5453H29.4584V16H16.1992V3.10801V0.65332H29.4777Z" fill="black"/>
<path d="M36.0879 0.672852H32.6475L44.9789 16.0002H48.4387L42.2729 8.34618L48.4387 0.69218H44.9982L40.5527 6.20074L36.0879 0.672852Z" fill="black"/>
<path d="M39.625 11.6122L37.9048 9.4668L32.6475 15.9998H36.1072L39.625 11.6122Z" fill="black"/>
<path fill-rule="evenodd" clip-rule="evenodd" d="M16.2958 15.9807L3.94499 0.65332H0.65918V15.9807H3.28783V3.93913L12.9906 16H16.2958V15.9807Z" fill="black"/>
<path d="M65.1385 15.9033C64.9452 15.9033 64.7906 15.8453 64.636 15.71C64.5007 15.5747 64.4233 15.4201 64.4233 15.2268C64.4233 15.0335 64.4813 14.8789 64.636 14.7436C64.7906 14.6083 64.9452 14.5503 65.1385 14.5503C65.3318 14.5503 65.4864 14.6083 65.6217 14.7436C65.757 14.8789 65.8343 15.0335 65.8343 15.2268C65.8343 15.3621 65.7957 15.478 65.7377 15.5747C65.6797 15.6713 65.583 15.768 65.4864 15.826C65.3704 15.8646 65.2738 15.9033 65.1385 15.9033Z" fill="black"/>
<path d="M69.6228 9.42822H70.7824V13.9124C70.7824 14.3183 70.6858 14.6855 70.5119 14.9754C70.3379 15.2654 70.0866 15.4973 69.7774 15.6519C69.4681 15.8066 69.1009 15.8839 68.6757 15.8839C68.2891 15.8839 67.9605 15.8066 67.6513 15.6906C67.342 15.5553 67.1101 15.362 66.9361 15.0914C66.7622 14.8208 66.6655 14.4922 66.6655 14.1057H67.8252C67.8252 14.2796 67.8639 14.4342 67.9412 14.5502C68.0185 14.6662 68.1152 14.7628 68.2504 14.8401C68.3857 14.8981 68.5404 14.9368 68.7143 14.9368C68.9076 14.9368 69.0622 14.8981 69.1975 14.8208C69.3328 14.7435 69.4295 14.6275 69.4875 14.4729C69.5648 14.3183 69.5841 14.125 69.5841 13.9124V9.42822H69.6228Z" fill="black"/>
<path d="M75.595 11.1873C75.5757 10.9167 75.4404 10.7041 75.2277 10.5494C75.0151 10.3948 74.7252 10.3175 74.3773 10.3175C74.126 10.3175 73.9134 10.3561 73.7395 10.4335C73.5655 10.5108 73.4302 10.6074 73.3336 10.7234C73.2369 10.8394 73.1983 10.994 73.1983 11.1486C73.1983 11.2839 73.2369 11.3999 73.2949 11.4965C73.3529 11.5932 73.4495 11.6705 73.5462 11.7478C73.6622 11.8251 73.7781 11.8638 73.8941 11.9217C74.0294 11.9604 74.1647 11.999 74.2807 12.0377L74.8798 12.1923C75.1311 12.2503 75.363 12.3276 75.595 12.4243C75.8269 12.5209 76.0202 12.6369 76.2135 12.7915C76.3874 12.9461 76.5421 13.1201 76.6387 13.3134C76.7354 13.526 76.7933 13.7579 76.7933 14.0285C76.7933 14.3958 76.6967 14.7243 76.5034 15.0143C76.3101 15.3042 76.0202 15.5168 75.653 15.6714C75.2857 15.826 74.8412 15.9034 74.3193 15.9034C73.8168 15.9034 73.3722 15.826 73.005 15.6714C72.6378 15.5168 72.3478 15.2849 72.1352 14.9949C71.9226 14.705 71.8066 14.3378 71.8066 13.9125H72.9663C72.9857 14.1252 73.063 14.3184 73.1789 14.4731C73.2949 14.6277 73.4689 14.7243 73.6622 14.8016C73.8554 14.879 74.0874 14.9176 74.3193 14.9176C74.5706 14.9176 74.8025 14.879 74.9958 14.8016C75.1891 14.7243 75.3437 14.6277 75.4404 14.4924C75.5563 14.3571 75.6143 14.2025 75.6143 14.0092C75.6143 13.8352 75.5563 13.6999 75.4597 13.6033C75.363 13.4873 75.2277 13.41 75.0538 13.3327C74.8798 13.2554 74.6672 13.1974 74.4353 13.1394L73.7008 12.9461C73.1596 12.8108 72.7537 12.5982 72.4445 12.3276C72.1352 12.057 71.9806 11.6898 71.9806 11.2259C71.9806 10.8587 72.0772 10.5108 72.2898 10.2402C72.5025 9.95025 72.7731 9.73764 73.1403 9.58301C73.5075 9.42839 73.9134 9.35107 74.358 9.35107C74.8218 9.35107 75.2277 9.42839 75.5757 9.58301C75.9236 9.73764 76.1942 9.95025 76.3874 10.2402C76.5807 10.5108 76.6967 10.8394 76.6967 11.1873H75.595Z" fill="black"/>
</svg>
