<svg width="69" height="20" viewBox="0 0 69 20" fill="none" xmlns="http://www.w3.org/2000/svg">
<path d="M62.9091 7.59473C62.7433 7.59473 62.5821 7.62897 62.4394 7.70971L57.9244 10.3171C57.6322 10.4855 57.4546 10.8034 57.4546 11.1417V16.347C57.4546 16.685 57.6322 17.0025 57.9244 17.1713L59.1035 17.852C59.6764 18.1343 59.8876 18.1299 60.1483 18.1299C60.9965 18.1299 61.4808 17.6153 61.4808 16.7209V11.5826C61.4808 11.5099 61.4179 11.458 61.3466 11.458H60.781C60.7086 11.458 60.6469 11.5099 60.6469 11.5826V16.7209C60.6469 17.1172 60.2339 17.516 59.5637 17.1809L58.3366 16.462C58.2932 16.4384 58.2599 16.3967 58.2599 16.347V11.1416C58.2599 11.0923 58.2928 11.042 58.3366 11.017L62.842 8.41931C62.8624 8.40742 62.8856 8.40115 62.9091 8.40115C62.9327 8.40115 62.9559 8.40742 62.9762 8.41931L67.4818 11.0171C67.5247 11.043 67.5585 11.0908 67.5585 11.1418V16.3471C67.5585 16.3968 67.5335 16.4477 67.4914 16.4717L62.9762 19.0695C62.9376 19.0926 62.8843 19.0926 62.842 19.0695L61.6821 18.3794C61.6645 18.3698 61.6447 18.3648 61.6246 18.3648C61.6045 18.3648 61.5848 18.3698 61.5671 18.3794C61.247 18.5608 61.1867 18.5819 60.8864 18.6861C60.8125 18.7119 60.7002 18.752 60.9248 18.8779L62.4394 19.7693C62.5822 19.8516 62.7443 19.8947 62.9092 19.894C63.074 19.895 63.2362 19.852 63.3788 19.7694L67.894 17.1715C68.1862 17.0016 68.3637 16.6852 68.3637 16.3471V11.1417C68.3637 10.8035 68.1862 10.4862 67.894 10.3174L63.3788 7.70997C63.2373 7.6291 63.0751 7.59486 62.9092 7.59486L62.9091 7.59473Z" fill="black"/>
<path d="M64.1169 11.3145C62.8312 11.3145 62.0655 11.8616 62.0655 12.7716C62.0655 13.7586 62.8254 14.0299 64.0594 14.1519C65.5357 14.2965 65.6507 14.5133 65.6507 14.8039C65.6507 15.3079 65.2488 15.5228 64.2991 15.5228C63.1058 15.5228 62.8435 15.2249 62.7557 14.6313C62.7454 14.5676 62.6962 14.5162 62.631 14.5162H62.0463C61.9743 14.5162 61.9121 14.5783 61.9121 14.6505C61.9121 15.4103 62.3254 16.3089 64.2991 16.3089C65.7278 16.3089 66.5519 15.7481 66.5519 14.7655C66.5519 13.7915 65.8862 13.53 64.5003 13.3468C63.1 13.1615 62.9665 13.0707 62.9665 12.7429C62.9665 12.4721 63.0798 12.11 64.1169 12.11C65.0434 12.11 65.3858 12.3098 65.5261 12.9346C65.5383 12.9932 65.59 13.04 65.6507 13.04H66.2356C66.2715 13.04 66.3064 13.0179 66.3313 12.992C66.3559 12.9644 66.3732 12.9334 66.3697 12.8962C66.2791 11.8205 65.5618 11.3145 64.1169 11.3145Z" fill="black"/>
<path d="M36.3653 0.769593C36.3148 0.769627 36.2652 0.782805 36.2214 0.807831C36.1779 0.833315 36.1417 0.869705 36.1165 0.913417C36.0913 0.957128 36.0779 1.00665 36.0776 1.05711V8.39058C36.0776 8.46253 36.0442 8.52701 35.9818 8.56312C35.9513 8.58092 35.9166 8.5903 35.8812 8.5903C35.8458 8.5903 35.8111 8.58092 35.7805 8.56312L34.5822 7.87297C34.4948 7.82239 34.3956 7.79576 34.2946 7.79576C34.1937 7.79576 34.0945 7.82239 34.0071 7.87297L29.2236 10.6337C29.0448 10.737 28.936 10.9354 28.936 11.1419V16.6635C28.936 16.8697 29.0449 17.0587 29.2236 17.1619L34.0071 19.9228C34.0944 19.9735 34.1936 20.0002 34.2946 20.0002C34.3957 20.0002 34.4949 19.9735 34.5822 19.9228L39.3657 17.1619C39.4533 17.1115 39.526 17.0389 39.5765 16.9513C39.627 16.8638 39.6535 16.7645 39.6534 16.6635V2.89774C39.6532 2.79433 39.6257 2.6928 39.5735 2.60352C39.5213 2.51425 39.4463 2.44042 39.3563 2.38959L36.5091 0.798238C36.4644 0.773324 36.4149 0.768927 36.3653 0.769593ZM5.59357 7.66206C5.50244 7.66565 5.41663 7.68164 5.33483 7.72907L0.551193 10.4899C0.463567 10.5403 0.390815 10.6129 0.34032 10.7004C0.289824 10.788 0.263381 10.8873 0.263674 10.9884L0.273267 18.3987C0.273267 18.5017 0.326428 18.5975 0.417027 18.6479C0.460462 18.674 0.51018 18.6878 0.560853 18.6878C0.611526 18.6878 0.661243 18.674 0.704679 18.6479L3.54216 17.0183C3.7219 16.9114 3.83928 16.7257 3.83928 16.5197V13.0591C3.83928 12.8526 3.94786 12.6631 4.12693 12.5605L5.33469 11.8608C5.42202 11.81 5.52133 11.7835 5.62235 11.7841C5.72094 11.7841 5.8222 11.8087 5.90987 11.8608L7.11777 12.5605C7.20547 12.6108 7.27829 12.6835 7.32882 12.771C7.37935 12.8586 7.40578 12.958 7.40542 13.0591V16.5196C7.40542 16.7256 7.524 16.9126 7.70253 17.0181L10.54 18.6479C10.5835 18.674 10.6332 18.6878 10.6838 18.6878C10.7345 18.6878 10.7842 18.674 10.8277 18.6479C10.8714 18.6226 10.9077 18.5862 10.9329 18.5425C10.9582 18.4987 10.9715 18.4491 10.9716 18.3986L10.9809 10.9884C10.9815 10.8873 10.9551 10.7878 10.9046 10.7002C10.8541 10.6127 10.7812 10.5401 10.6934 10.4899L5.90987 7.72907C5.82899 7.68164 5.74292 7.66579 5.65113 7.66206H5.59357ZM48.5781 7.72907C48.4781 7.72907 48.3802 7.75439 48.2905 7.80582L43.507 10.5667C43.4194 10.6171 43.3467 10.6897 43.2962 10.7772C43.2457 10.8648 43.2192 10.9641 43.2194 11.0651V16.5867C43.2194 16.7944 43.3364 16.9826 43.5165 17.0853L48.2618 19.7886C48.437 19.8885 48.6509 19.8961 48.8273 19.7979L51.7032 18.1971C51.7945 18.1465 51.8562 18.0519 51.8566 17.948C51.857 17.8974 51.844 17.8476 51.8187 17.8037C51.7934 17.7599 51.7568 17.7236 51.7128 17.6987L46.9005 14.9378C46.8104 14.8864 46.7472 14.7823 46.7472 14.679V12.9536C46.7472 12.8503 46.8111 12.7557 46.9005 12.7043L48.3959 11.8415C48.4396 11.8162 48.4893 11.8029 48.5398 11.8029C48.5903 11.8029 48.6399 11.8162 48.6836 11.8415L50.1789 12.7043C50.2227 12.7295 50.2591 12.7658 50.2843 12.8095C50.3096 12.8533 50.3229 12.9029 50.3228 12.9534V14.3147C50.3226 14.3652 50.3359 14.4149 50.3611 14.4586C50.3863 14.5024 50.4227 14.5387 50.4665 14.5638C50.5562 14.6157 50.6646 14.6158 50.754 14.5638L53.6204 12.8962C53.7079 12.8456 53.7805 12.7729 53.831 12.6854C53.8815 12.5979 53.9081 12.4986 53.9081 12.3976V11.0653C53.9081 10.8594 53.7988 10.6701 53.6204 10.5667L48.8657 7.80582C48.7783 7.75526 48.679 7.72868 48.5781 7.72907ZM34.2754 11.8512C34.3004 11.8512 34.3297 11.8573 34.3521 11.8703L35.9914 12.8193C36.0359 12.845 36.0682 12.8926 36.0682 12.9439V14.8419C36.0682 14.8935 36.0362 14.9409 35.9914 14.9666L34.3521 15.9156C34.3302 15.9281 34.3055 15.9347 34.2803 15.9347C34.255 15.9347 34.2303 15.9281 34.2084 15.9156L32.5692 14.9666C32.5246 14.9408 32.4925 14.8935 32.4925 14.8419V12.9439C32.4925 12.8924 32.5247 12.8453 32.5692 12.8193L34.2084 11.8704C34.2285 11.8579 34.2518 11.8513 34.2755 11.8513L34.2754 11.8512Z" fill="black"/>
<path d="M19.9627 7.7002C19.863 7.7002 19.7644 7.72551 19.6752 7.77694L14.8917 10.5282C14.7127 10.6312 14.604 10.83 14.604 11.0362V16.5579C14.604 16.7644 14.7129 16.953 14.8917 17.0564L19.6752 19.8172C19.7625 19.8679 19.8617 19.8946 19.9627 19.8946C20.0638 19.8946 20.163 19.8679 20.2503 19.8172L25.0338 17.0564C25.1214 17.006 25.1941 16.9333 25.2446 16.8458C25.2951 16.7582 25.3216 16.6589 25.3214 16.5579V11.0362C25.3214 10.8297 25.2126 10.6312 25.0338 10.5282L20.2503 7.77694C20.1629 7.72644 20.0637 7.69996 19.9627 7.7002ZM48.5679 12.6276C48.5488 12.6276 48.5277 12.6276 48.5105 12.6372L47.5902 13.174C47.5731 13.1835 47.5587 13.1974 47.5486 13.2142C47.5385 13.2311 47.533 13.2503 47.5327 13.2699V14.3243C47.5327 14.364 47.5556 14.4004 47.5902 14.4203L48.5105 14.9475C48.545 14.9674 48.5817 14.9674 48.6159 14.9475L49.5361 14.4201C49.5532 14.4105 49.5675 14.3967 49.5776 14.3799C49.5877 14.3631 49.5932 14.3439 49.5937 14.3243V13.2698C49.5932 13.2502 49.5877 13.231 49.5776 13.2142C49.5675 13.1974 49.5532 13.1836 49.5361 13.174L48.6159 12.637C48.5988 12.6271 48.5871 12.6276 48.5679 12.6276Z" fill="black"/>
</svg>
