<svg width="142" height="25" viewBox="0 0 142 25" fill="none" xmlns="http://www.w3.org/2000/svg">
<path d="M37.2561 12.9064H31.8785V7.49822H37.548C39.6232 7.49822 40.6609 8.41348 40.6609 10.2445C40.6609 12.0194 39.5255 12.9073 37.2561 12.9073M41.121 7.43519C40.3796 6.77527 39.3531 6.44531 38.0281 6.44531L30.3269 6.48795V19.4268H31.8785L31.8646 13.9185H37.5953C39.0319 13.9185 40.1636 13.5886 40.989 12.9286C41.8143 12.2687 42.2272 11.353 42.2272 10.1819C42.2272 9.01084 41.8588 8.09557 41.122 7.43519H41.121ZM51.1644 16.7097C51.016 17.133 50.7627 17.5117 50.428 17.8104C49.7329 18.4888 48.6726 18.8276 47.2461 18.8276C45.9578 18.8276 44.9698 18.5032 44.2802 17.8386C43.5906 17.1741 43.2454 16.2968 43.2454 15.1911C43.2454 14.6155 43.3358 14.1044 43.516 13.6585C43.6963 13.2127 43.9581 12.8364 44.3011 12.5296C45.0147 11.8794 45.9963 11.5541 47.2466 11.5541C50.016 11.5541 51.4012 12.7664 51.4012 15.1911C51.4012 15.7671 51.3224 16.2732 51.1695 16.7097M51.4508 11.9364C50.5054 11.0745 49.1059 10.6389 47.2512 10.6389C45.4995 10.6389 44.1454 11.0791 43.1907 11.9596C42.3287 12.7567 41.8931 13.8319 41.8931 15.186C41.8931 16.5299 42.338 17.6143 43.2278 18.4392C43.719 18.8841 44.2913 19.2067 44.9452 19.4059C45.5991 19.6052 46.3661 19.7048 47.2466 19.7048C49.091 19.7048 50.4906 19.2785 51.4601 18.4258C52.3221 17.6472 52.7577 16.5721 52.7577 15.1855C52.7577 13.7952 52.3221 12.7108 51.4508 11.9313V11.9364ZM63.1838 17.0837C63.1838 18.8253 61.6235 19.696 58.5032 19.696C57.5495 19.696 56.7459 19.6358 56.0934 19.5144C55.4409 19.393 54.9103 19.1923 54.5029 18.9129C54.1885 18.7002 53.931 18.4138 53.7527 18.0787C53.5673 17.7358 53.4468 17.3048 53.3912 16.7811L54.8431 16.7672C54.8431 17.4531 55.0971 17.9573 55.6054 18.2817C56.1509 18.6709 57.1162 18.8656 58.5032 18.8656C60.6841 18.8656 61.775 18.3187 61.775 17.226C61.775 16.5865 61.4043 16.1471 60.6776 15.9052C60.5293 15.8589 59.6474 15.7361 58.0361 15.5373C56.4248 15.3385 55.4131 15.1596 55.0155 15.002C54.1544 14.6591 53.7239 14.0427 53.7239 13.1539C53.7239 12.2826 54.1086 11.6338 54.8825 11.2084C55.2625 11.0323 55.7375 10.8961 56.308 10.7983C56.8785 10.7005 57.5389 10.6523 58.2896 10.6523C61.2935 10.6523 62.7955 11.5949 62.7955 13.4792H61.4145C61.4145 12.1538 60.3579 11.4865 58.247 11.4865C57.1727 11.4865 56.3715 11.6255 55.8436 11.8896C55.3158 12.1538 55.0521 12.5709 55.0521 13.127C55.0521 13.646 55.4089 14.0214 56.1217 14.2531C56.5388 14.3736 57.4971 14.5126 58.9977 14.6702C60.3407 14.7907 61.2625 14.9622 61.7625 15.18C62.7172 15.5507 63.1936 16.181 63.1936 17.0693L63.1838 17.0837ZM68.8868 19.4439L68.2959 19.5274L67.9275 19.5552C66.9821 19.5552 66.3055 19.4185 65.8824 19.1441C65.4593 18.8698 65.2554 18.3901 65.2554 17.7075V11.7965H63.5379V10.928H65.2466L65.2605 8.13821H66.584V10.928H68.8891V11.8104L66.584 11.7965V17.5416C66.584 17.9693 66.6975 18.2645 66.9246 18.4221C67.1517 18.5797 67.5567 18.6658 68.1407 18.6658C68.2241 18.6751 68.3168 18.6723 68.4187 18.6566C68.5732 18.6291 68.7263 18.5941 68.8775 18.5518L68.8914 19.4324L68.8868 19.4439ZM78.0418 17.4837C77.6803 17.7802 77.2688 18.0064 76.8058 18.1649C76.3428 18.3234 75.8104 18.3966 75.2088 18.3966C72.4403 18.3966 71.0565 17.2533 71.0565 14.9672C71.0565 13.9028 71.4106 13.0695 72.1192 12.4675C72.8278 11.8655 73.8246 11.5648 75.112 11.5648C76.4082 11.5648 77.392 11.8683 78.0631 12.4745C78.7341 13.0806 79.0701 13.8935 79.0701 14.9121C79.0701 16.0229 78.7272 16.8793 78.0422 17.4809M80.3941 10.9303H79.0706L79.0567 12.3901C78.4728 11.797 78.0557 11.423 77.8054 11.2654C77.0639 10.8576 76.1056 10.6546 74.9289 10.6546C73.2059 10.6546 71.8898 11.0485 70.9824 11.8354C70.1204 12.5584 69.6904 13.6043 69.6904 14.9747C69.6904 15.6513 69.7993 16.2546 70.0171 16.782C70.2349 17.3094 70.5528 17.7659 70.9703 18.1362C71.8796 18.8952 73.1647 19.2753 74.8261 19.2753C76.8206 19.2753 78.2355 18.7298 79.071 17.6384V19.1492C79.071 20.1131 78.7675 20.8583 78.1609 21.3866C77.5542 21.9149 76.556 22.1744 75.1662 22.1744C73.8593 22.1744 72.9288 21.9891 72.3731 21.635C71.9561 21.3584 71.6687 20.8787 71.5112 20.1961H70.1487C70.297 21.1493 70.7048 21.8389 71.3536 22.2644C72.1136 22.7547 73.3927 22.9998 75.2 22.9998C78.6572 22.9998 80.3904 21.7147 80.3904 19.1441V10.9341L80.3941 10.9303ZM87.5541 11.7891C87.1555 11.7242 86.7857 11.6964 86.4437 11.6964C84.2679 11.6964 83.1802 12.8897 83.1802 15.2754V19.4249H81.8706L81.8567 10.9341L83.1807 10.947V12.4624H83.2502C83.4727 11.8655 83.8249 11.4128 84.3059 11.1046C84.8333 10.8061 85.6202 10.6569 86.6666 10.6569H87.555V11.797L87.5541 11.7891ZM88.7854 14.6429C88.9522 13.678 89.3276 12.931 89.9101 12.4017C90.2901 12.0959 90.7211 11.8655 91.2022 11.7126C91.6832 11.5597 92.2217 11.4828 92.8279 11.4828C94.004 11.4828 94.9596 11.8053 95.7104 12.4504C96.4611 13.0955 96.8282 13.8268 96.8282 14.6424L88.7854 14.6429ZM96.957 12.0231C96.4936 11.5583 95.9189 11.2149 95.233 10.9915C94.5472 10.7681 93.7501 10.6569 92.8232 10.6569C91.1085 10.6569 89.7785 11.0555 88.8322 11.8526C87.8859 12.6497 87.4141 13.7341 87.4141 15.1067C87.4141 16.4794 87.8683 17.5629 88.7766 18.3739C89.759 19.2637 91.1401 19.7086 92.9326 19.7086C93.6463 19.7086 94.3057 19.6275 94.9128 19.4662C95.5199 19.3049 96.0505 19.076 96.5042 18.7803C97.3013 18.208 97.8055 17.5013 98.0196 16.6625H96.5886C96.0973 18.1144 94.8753 18.8406 92.921 18.8406C91.5409 18.8406 90.4801 18.4856 89.7396 17.7756C89.1001 17.1671 88.7812 16.3788 88.7812 15.4103H98.218C98.218 13.97 97.8009 12.8406 96.9528 12.0273L96.957 12.0231Z" fill="black"/>
<path d="M112.206 15.9571C112.206 18.4782 110.173 19.7387 106.107 19.7387C103.671 19.7387 101.892 19.3045 100.771 18.4411C99.8539 17.7274 99.396 16.6393 99.396 15.1749H101.033C101.033 17.5281 102.724 18.7048 106.106 18.7048C107.728 18.7048 108.901 18.4638 109.628 17.9828C110.24 17.5573 110.546 16.8905 110.546 15.9835C110.546 15.0854 110.129 14.4561 109.295 14.0946C108.822 13.9 107.673 13.6544 105.833 13.3587C103.525 13.0065 102.029 12.6552 101.343 12.3035C100.352 11.7844 99.8603 10.9053 99.8603 9.66474C99.8603 8.50756 100.277 7.64652 101.126 7.0816C102.034 6.46154 103.591 6.15104 105.796 6.15104C109.781 6.15104 111.774 7.47459 111.774 10.1217H110.123C110.123 8.13821 108.643 7.14741 105.684 7.14741C104.2 7.14741 103.115 7.34668 102.428 7.74986C101.778 8.17621 101.455 8.80184 101.455 9.62674C101.455 10.4887 101.872 11.0958 102.706 11.448C103.151 11.6519 104.458 11.9346 106.627 12.2961C108.666 12.6019 110.042 12.9588 110.751 13.3619C111.725 13.8624 112.211 14.7291 112.211 15.9571H112.206ZM125.507 17.2436C124.895 17.7334 124.204 18.1009 123.434 18.3466C122.664 18.5922 121.801 18.7141 120.846 18.7141C118.898 18.7141 117.324 18.189 116.122 17.1393C114.92 16.0897 114.321 14.6906 114.321 12.9421C114.321 11.1199 114.916 9.69996 116.108 8.68228C117.3 7.66459 118.879 7.15621 120.846 7.15621C122.84 7.15621 124.408 7.68823 125.549 8.75179C126.151 9.27083 126.596 9.87606 126.884 10.5698C127.172 11.2636 127.315 12.0546 127.315 12.9425C127.315 14.7555 126.712 16.1893 125.506 17.2431M126.376 18.1014C127.229 17.4999 127.86 16.7714 128.268 15.915C128.677 15.0586 128.881 14.0705 128.881 12.95C128.881 10.941 128.214 9.33524 126.879 8.11736C126.165 7.45095 125.303 6.95555 124.293 6.63162C123.283 6.30768 122.129 6.14502 120.831 6.14502C118.31 6.14502 116.336 6.75674 114.899 7.97787C113.463 9.199 112.745 10.8567 112.745 12.949C112.745 14.9853 113.469 16.6286 114.919 17.878C116.369 19.1274 118.35 19.7526 120.861 19.7526C121.843 19.7526 122.699 19.6863 123.431 19.5533C124.163 19.4203 124.784 19.2164 125.294 18.9416L127.712 20.6178L128.723 19.69L126.381 18.1019L126.376 18.1014ZM141.136 19.4254H129.946V6.46803L131.484 6.44022V18.3396H141.146L141.132 19.4212L141.136 19.4254Z" fill="black"/>
<path d="M19.7148 17.2506C19.8706 16.1523 19.8237 15.991 20.7891 16.1689L21.0347 16.1875C21.7771 16.2162 22.748 16.0865 23.3184 15.8617C24.5465 15.3788 25.2741 14.5724 24.0636 14.7842C21.3016 15.2671 21.1116 14.4737 21.1116 14.4737C24.028 10.8057 25.2472 6.14922 24.1953 5.00919C21.3197 1.90099 16.3564 3.37098 16.2683 3.40944L16.2419 3.41408C15.696 3.31815 15.0852 3.26115 14.3993 3.25188C13.1495 3.23427 12.2013 3.52993 11.4816 3.99197C11.4816 3.99197 2.61811 0.896284 3.03056 7.88475C3.11861 9.37142 5.54465 19.1335 8.43782 16.1847C9.49536 15.1063 10.5177 14.1948 10.5177 14.1948C11.0508 14.4933 11.6611 14.6253 12.2699 14.5738L12.319 14.5382C12.3037 14.6725 12.3098 14.8023 12.3389 14.958C11.5938 15.6638 11.8125 15.7875 10.3221 16.048C8.81459 16.3112 9.7002 16.7802 10.2786 16.903C10.9797 17.0513 12.6017 17.2622 13.6977 15.9623L13.6542 16.1106C13.9461 16.3089 13.9266 17.5356 13.9684 18.4124C14.0101 19.2892 14.0796 20.1071 14.29 20.5896C14.5004 21.072 14.7497 22.3135 16.7081 21.9585C18.345 21.661 19.5967 21.2333 19.7111 17.2524" fill="black"/>
<path d="M19.7148 17.2506C19.8706 16.1523 19.8237 15.991 20.7891 16.1689L21.0347 16.1875C21.7771 16.2162 22.748 16.0865 23.3184 15.8617C24.5465 15.3788 25.2741 14.5724 24.0636 14.7842C21.3016 15.2671 21.1116 14.4737 21.1116 14.4737C24.028 10.8057 25.2472 6.14922 24.1953 5.00919C21.3197 1.90099 16.3564 3.37098 16.2683 3.40944L16.2419 3.41408C15.696 3.31815 15.0852 3.26115 14.3993 3.25188C13.1495 3.23427 12.2013 3.52993 11.4816 3.99197C11.4816 3.99197 2.61811 0.896284 3.03056 7.88475C3.11861 9.37142 5.54465 19.1335 8.43782 16.1847C9.49536 15.1063 10.5177 14.1948 10.5177 14.1948C11.0508 14.4933 11.6611 14.6253 12.2699 14.5738L12.319 14.5382C12.3037 14.6725 12.3098 14.8023 12.3389 14.958C11.5938 15.6638 11.8125 15.7875 10.3221 16.048C8.81459 16.3112 9.7002 16.7802 10.2786 16.903C10.9797 17.0513 12.6017 17.2622 13.6977 15.9623L13.6542 16.1106C13.9461 16.3089 13.9266 17.5356 13.9684 18.4124C14.0101 19.2892 14.0796 20.1071 14.29 20.5896C14.5004 21.072 14.7497 22.3135 16.7081 21.9585C18.345 21.661 19.5967 21.2333 19.7111 17.2524" stroke="black" stroke-width="4.108"/>
<path d="M24.0629 14.7835C21.3009 15.2664 21.1109 14.473 21.1109 14.473C24.0272 10.8045 25.2465 6.14802 24.1945 5.00846C21.324 1.90026 16.3561 3.37071 16.268 3.40918L16.2412 3.41381C15.6953 3.31788 15.0845 3.26088 14.3981 3.25161C13.1483 3.23447 12.2001 3.52967 11.4808 3.9917C11.4808 3.9917 2.61689 0.89602 3.02934 7.88448C3.11739 9.37115 5.54297 19.1337 8.4366 16.1844C9.49414 15.106 10.516 14.1945 10.516 14.1945C11.0491 14.493 11.6594 14.6251 12.2682 14.5736L12.3178 14.5379C12.3025 14.6723 12.3095 14.802 12.3377 14.9577C11.5925 15.6635 11.8113 15.7873 10.3218 16.0477C8.81383 16.311 9.6999 16.7799 10.2783 16.9027C10.9794 17.051 12.6014 17.2619 13.6974 15.962L13.6539 16.1103C13.9458 16.3086 14.1511 17.4 14.1173 18.3903C14.0835 19.3807 14.0598 20.0587 14.2901 20.5898C14.5205 21.1208 14.7499 22.3137 16.7092 21.9587C18.3461 21.6612 19.1946 20.891 19.3123 19.6054C19.3957 18.6916 19.5857 18.8269 19.5973 18.0099L19.7493 17.6234C19.9245 16.3846 19.7771 15.9852 20.7855 16.171L21.0311 16.1895C21.7736 16.2183 22.7449 16.0885 23.3149 15.8637C24.543 15.3809 25.2706 14.5745 24.0601 14.7863L24.0629 14.7835Z" fill="black"/>
<path d="M13.8204 15.4942C13.7444 17.7988 13.839 20.1201 14.1054 20.6846C14.3719 21.249 14.9415 22.346 16.9008 21.9901C18.5377 21.6925 19.1332 21.117 19.3913 19.8462C19.5767 18.9115 19.9488 16.3149 19.9956 15.7834M11.4718 3.93916C11.4718 3.93916 2.59717 0.866644 3.01425 7.85835C3.10694 9.34502 5.52788 19.1075 8.42244 16.1537C9.47998 15.0753 10.436 14.2295 10.436 14.2295M16.2683 3.37841C15.961 3.45998 21.2024 1.75457 24.1808 4.98048C25.2328 6.1205 24.014 10.777 21.0972 14.4455" stroke="white" stroke-width="1.369" stroke-linecap="round" stroke-linejoin="round"/>
<path d="M21.0927 14.4451C21.0927 14.4451 21.278 15.2376 24.0447 14.7547C25.2552 14.5429 24.5267 15.3493 23.2986 15.8326C22.2911 16.2289 20.0323 16.3304 19.9957 15.783C19.9007 14.3696 21.1844 14.7992 21.0917 14.4451C21.0083 14.1263 20.4337 13.8135 20.0537 13.0331C19.7223 12.3518 15.5074 7.12811 21.2224 7.90388C21.4319 7.86681 19.7316 3.29557 14.3822 3.22143C9.03291 3.14728 9.2104 8.79644 9.2104 8.79644" stroke="white" stroke-width="1.369" stroke-linecap="round" stroke-linejoin="bevel"/>
<path d="M12.3234 14.9287C11.5773 15.6345 11.797 15.7582 10.3066 16.0187C8.79862 16.2828 9.68469 16.7509 10.263 16.8737C10.9642 17.022 12.5862 17.2329 13.6822 15.932C14.0159 15.5358 13.6804 14.9032 13.222 14.7429C13.0005 14.665 12.7044 14.5677 12.323 14.9282L12.3234 14.9287Z" stroke="white" stroke-width="1.369" stroke-linejoin="round"/>
<path d="M12.2751 14.9166C12.2 14.5013 12.4359 14.0082 12.6889 13.4299C13.0689 12.5633 13.9457 11.6957 13.245 8.94532C12.7223 6.89558 9.21459 8.51896 9.2132 8.79702C9.21181 9.07507 9.37169 10.2058 9.15434 11.522C8.87072 13.2403 10.4441 14.6932 12.2556 14.5449" stroke="white" stroke-width="1.369" stroke-linecap="round" stroke-linejoin="round"/>
<path d="M11.4402 8.75441C11.4245 8.84942 11.6455 9.10198 11.9333 9.13628C12.2211 9.17057 12.4663 8.97223 12.4825 8.87769C12.4987 8.78315 12.2777 8.67841 11.9894 8.64412C11.7012 8.60983 11.4555 8.65988 11.4402 8.75441Z" fill="white" stroke="white" stroke-width="0.456"/>
<path d="M20.1948 8.56106C20.2106 8.65606 19.99 8.90863 19.7017 8.94292C19.4135 8.97721 19.1679 8.77887 19.1521 8.6834C19.1363 8.58794 19.3574 8.48413 19.6452 8.44983C19.933 8.41554 20.1781 8.46513 20.1943 8.56013L20.1948 8.56106Z" fill="white" stroke="white" stroke-width="0.228"/>
<path d="M21.2237 7.90381C21.2709 8.64853 21.0346 9.15506 21.0045 9.94844C20.9604 11.1005 21.6523 12.4185 20.6096 13.7393" stroke="white" stroke-width="1.369" stroke-linecap="round" stroke-linejoin="round"/>
</svg>
