<svg width="58" height="20" viewBox="0 0 58 20" fill="none" xmlns="http://www.w3.org/2000/svg">
<path d="M15.7904 0.744629C17.0856 1.11713 17.4065 2.16012 17.567 3.312C17.7102 4.3378 17.5555 5.34641 17.3549 6.34929C17.2747 6.74471 17.2747 6.75044 17.6529 6.87079C18.6844 7.20317 19.6701 7.63298 20.5355 8.29774C20.8163 8.51551 21.0684 8.76193 21.2919 9.03701C22.0255 9.94819 21.9624 10.9855 21.1315 11.8795C20.2604 12.8136 19.1429 13.3408 17.9738 13.7763C17.3377 14.0113 17.3377 13.9998 17.4638 14.6761C17.6758 15.8509 17.7503 17.0257 17.4466 18.1947C17.2861 18.8079 16.9939 19.3466 16.4495 19.7134C16.2489 19.8509 16.0082 19.891 15.7962 19.9942C15.5096 19.9942 15.2231 19.9942 14.9365 19.9942C14.2775 19.8223 13.6471 19.593 13.0626 19.2377C12.4036 18.8308 11.7904 18.3666 11.2288 17.8337C11.074 17.6847 10.9537 17.6847 10.8047 17.8509C10.5353 18.1489 10.203 18.3781 9.88776 18.6245C9.03388 19.2893 8.08258 19.7535 7.02812 19.9999C6.75878 19.9999 6.49517 19.9999 6.22582 19.9999C5.31463 19.7993 4.81033 19.1861 4.55245 18.3323C4.5066 18.189 4.47222 18.04 4.44356 17.8853C4.21433 16.699 4.36906 15.5299 4.62695 14.3666C4.67852 14.1259 4.62695 14.017 4.39198 13.9482C3.66991 13.7248 2.97076 13.4439 2.31746 13.06C1.32604 12.4754 0.449237 11.7878 0.145508 10.6015C0.145508 10.4468 0.145508 10.2978 0.145508 10.143C0.39193 9.10005 1.114 8.44674 1.97361 7.90232C2.72434 7.42667 3.53811 7.11148 4.38052 6.8536C4.62121 6.7791 4.68425 6.66448 4.63268 6.41233C4.41491 5.3808 4.2831 4.34926 4.37479 3.28908C4.49514 1.9137 5.0109 1.18016 6.2774 0.744629C6.48944 0.744629 6.69574 0.744629 6.90778 0.744629C7.14847 0.807667 7.38916 0.859244 7.62412 0.933743C8.82185 1.32343 9.81326 2.04551 10.7302 2.87646C10.9078 3.03692 11.0167 3.0885 11.223 2.90512C12.3004 1.92516 13.4637 1.07128 14.9308 0.744629C15.2174 0.744629 15.5039 0.744629 15.7904 0.744629ZM10.9365 13.805C11.4981 13.805 12.0597 13.7993 12.6213 13.8107C12.862 13.8164 13.011 13.719 13.1371 13.5242C13.7331 12.5786 14.289 11.6101 14.8047 10.6244C14.8907 10.4582 14.9022 10.315 14.8105 10.143C14.289 9.14589 13.7331 8.16593 13.1142 7.22609C12.9996 7.04844 12.8563 6.96248 12.6442 6.95102C11.5268 6.88798 10.415 6.88798 9.2975 6.95102C9.11984 6.96248 8.97085 7.01406 8.86196 7.18025C8.24304 8.14301 7.65851 9.1287 7.1542 10.1602C7.0797 10.3092 7.06824 10.441 7.14274 10.5958C7.65851 11.6502 8.24877 12.6646 8.90781 13.6388C8.98804 13.7591 9.09119 13.8222 9.24019 13.8222C9.81326 13.805 10.3749 13.805 10.9365 13.805ZM1.114 10.3551C1.114 10.7448 1.32031 11.0428 1.57246 11.3121C2.44353 12.229 3.56676 12.6932 4.74156 13.0772C4.92494 13.1345 4.98225 13.0371 5.0281 12.8938C5.28025 12.103 5.59544 11.3293 5.92782 10.5728C5.9794 10.4525 5.99659 10.3379 5.93928 10.2175C5.60117 9.46108 5.28598 8.68743 5.03956 7.89659C4.98225 7.71894 4.88483 7.67882 4.71291 7.73613C4.4321 7.83355 4.14556 7.91378 3.87049 8.02267C2.99368 8.36651 2.157 8.77912 1.50942 9.49547C1.29166 9.73616 1.114 9.99977 1.114 10.3551ZM6.67855 19.0601C6.67855 19.0601 6.73586 19.0543 6.79316 19.0429C8.18573 18.8308 9.22873 18.0056 10.2316 17.1059C10.3462 17.0027 10.3118 16.9168 10.2201 16.8136C9.63561 16.1947 9.10838 15.5299 8.62127 14.8365C8.54677 14.7334 8.45508 14.6875 8.33473 14.6761C7.50378 14.613 6.68428 14.4984 5.87052 14.3265C5.67567 14.2864 5.60117 14.3437 5.54959 14.5328C5.32036 15.4497 5.2516 16.3781 5.31463 17.3179C5.33756 17.7076 5.43498 18.0858 5.6069 18.4469C5.81894 18.8824 6.16278 19.0543 6.67855 19.0601ZM16.7073 16.5901C16.7016 15.8509 16.6042 15.1804 16.4667 14.5156C16.4265 14.315 16.3234 14.252 16.1228 14.2978C15.3205 14.4697 14.5067 14.5844 13.693 14.6703C13.5612 14.6818 13.4523 14.7276 13.3778 14.8365C12.9021 15.5185 12.3921 16.1718 11.8477 16.7964C11.7331 16.9225 11.7445 17.0199 11.8649 17.1345C12.1399 17.4153 12.4437 17.6618 12.7589 17.8967C13.4752 18.424 14.2202 18.9053 15.1314 19.0371C15.7331 19.1231 16.0942 18.9512 16.3635 18.3953C16.65 17.8108 16.6959 17.1747 16.7073 16.5901ZM5.30317 4.05126C5.27452 4.81345 5.41779 5.53553 5.56106 6.2576C5.60117 6.44671 5.67567 6.51548 5.87625 6.46964C6.66709 6.28052 7.46939 6.1831 8.27743 6.09141C8.44935 6.06848 8.5525 5.99972 8.64992 5.86791C9.13704 5.20887 9.62988 4.55557 10.203 3.9653C10.3176 3.84496 10.3061 3.76473 10.1915 3.66157C9.85911 3.36358 9.521 3.07131 9.15423 2.80769C8.52385 2.35497 7.86481 1.95955 7.09689 1.77616C6.19144 1.55839 5.69286 1.85639 5.44644 2.75039C5.31463 3.17446 5.28025 3.62146 5.30317 4.05126ZM16.65 4.14869C16.6787 3.57561 16.6214 3.00254 16.4036 2.45239C16.1572 1.82201 15.7331 1.58132 15.0684 1.71885C13.7388 1.9882 12.7302 2.80196 11.7789 3.70169C11.67 3.80484 11.7331 3.87934 11.8076 3.9653C12.3348 4.56703 12.8506 5.18022 13.3033 5.84499C13.4064 5.99399 13.5325 6.07422 13.7216 6.09714C14.5182 6.19456 15.3148 6.28625 16.0942 6.47537C16.289 6.52121 16.375 6.46391 16.4093 6.26906C16.5469 5.56991 16.6787 4.87649 16.65 4.14869ZM20.8392 10.2863C20.8507 9.98258 20.6616 9.71896 20.4323 9.484C19.5441 8.55562 18.3922 8.10863 17.2059 7.72467C17.034 7.66736 16.9881 7.77624 16.948 7.90232C16.6902 8.65878 16.4093 9.4095 16.0655 10.1373C15.9853 10.3092 16.0025 10.4525 16.0827 10.6244C16.3635 11.209 16.6042 11.8107 16.8277 12.4181C17.1028 13.1803 16.9251 13.1517 17.7561 12.8537C18.7246 12.5098 19.6415 12.0686 20.375 11.3178C20.6329 11.0485 20.8449 10.7448 20.8392 10.2863ZM15.4294 11.4898C15.0282 12.1775 14.6557 12.8193 14.2832 13.4611C14.1858 13.6273 14.3062 13.6445 14.4208 13.6273C14.9308 13.5471 15.4351 13.4497 15.9452 13.3637C16.077 13.3408 16.1171 13.2663 16.0712 13.1402C15.8936 12.5958 15.7102 12.0571 15.4294 11.4898ZM11.0282 14.7849C10.6843 14.7849 10.3405 14.7849 9.99665 14.7849C9.85911 14.7849 9.77315 14.8308 9.88776 14.9683C10.2144 15.3637 10.5468 15.7592 10.8849 16.1489C10.9651 16.2405 11.0454 16.2749 11.1485 16.1603C11.4809 15.7821 11.8076 15.3924 12.1056 14.9855C12.203 14.8537 12.1915 14.7792 12.0081 14.7849C11.6758 14.7849 11.3548 14.7849 11.0282 14.7849ZM6.55247 11.507C6.30032 12.1087 6.09975 12.6302 5.93355 13.1689C5.89917 13.272 5.89917 13.3637 6.02525 13.3924C6.59832 13.5184 7.17139 13.6216 7.81324 13.656C7.34905 12.9511 6.97655 12.2577 6.55247 11.507ZM10.9938 5.9596C11.3204 5.9596 11.6414 5.9596 11.968 5.9596C12.0311 5.9596 12.117 5.98825 12.1514 5.91375C12.1858 5.84499 12.1113 5.79341 12.0712 5.74183C11.7617 5.3636 11.4523 4.99111 11.1428 4.61861C11.0282 4.48107 10.9365 4.52119 10.8448 4.6358C10.5296 5.0083 10.2201 5.3808 9.91069 5.75329C9.8763 5.79914 9.82473 5.84499 9.85338 5.90229C9.88776 5.98252 9.96799 5.9596 10.031 5.9596C10.3462 5.9596 10.6729 5.9596 10.9938 5.9596ZM14.4609 7.12294C14.352 7.12294 14.2832 7.09429 14.2546 7.16879C14.2317 7.23182 14.2775 7.27767 14.3062 7.32352C14.6328 7.89659 14.9652 8.46393 15.2918 9.03701C15.3205 9.08285 15.3377 9.15735 15.4007 9.15735C15.481 9.15735 15.4982 9.07139 15.5211 9.01408C15.693 8.56709 15.8592 8.12009 16.0254 7.67309C16.0827 7.51836 16.054 7.42094 15.8707 7.38655C15.3835 7.29486 14.8964 7.20317 14.4609 7.12294ZM7.61839 7.11721C7.06824 7.19171 6.5582 7.27767 6.05963 7.38655C5.93928 7.41521 5.89917 7.47252 5.93928 7.58713C6.09974 8.0857 6.27167 8.57855 6.4837 9.05993C6.54101 9.19174 6.60405 9.19747 6.67282 9.06566C6.98228 8.45247 7.33185 7.86221 7.69289 7.2834C7.75593 7.16306 7.71008 7.11148 7.61839 7.11721Z" fill="black"/>
<path d="M57.453 14.613C57.0003 14.911 56.5131 15.0772 55.963 14.9855C55.155 14.8479 54.7595 14.3952 54.7538 13.5757C54.7481 12.2519 54.7538 10.9224 54.7481 9.59858C54.7481 9.16878 54.7481 9.16878 54.324 9.16878C54.3068 9.16878 54.2839 9.16878 54.2667 9.16878C53.6306 9.16878 53.5733 9.10001 53.6592 8.45816C53.6764 8.3149 53.7452 8.25186 53.8827 8.25186C54.0718 8.25186 54.2667 8.2404 54.4558 8.25186C54.685 8.26332 54.7595 8.1659 54.7538 7.94813C54.7423 7.55844 54.7595 7.16302 54.7481 6.77333C54.7423 6.55556 54.8226 6.46387 55.0461 6.46387C55.9114 6.47533 55.7739 6.37791 55.7853 7.18594C55.7911 7.43236 55.7968 7.68451 55.7853 7.93094C55.7739 8.16017 55.8541 8.26332 56.0948 8.25186C56.3412 8.2404 56.5934 8.25759 56.8398 8.24613C57.0404 8.2404 57.1034 8.33209 57.1091 8.5212C57.1378 9.16304 57.1435 9.16304 56.4902 9.16304C55.6879 9.16878 55.7911 9.06562 55.7853 9.85646C55.7796 10.9052 55.7853 11.9539 55.7853 13.0026C55.7853 13.1001 55.7853 13.1918 55.7853 13.2892C55.814 13.9539 56.3068 14.2577 56.8914 13.9367C57.1206 13.8107 57.1836 13.8737 57.2524 14.08C57.304 14.2233 57.3384 14.3723 57.4473 14.4926C57.453 14.5385 57.453 14.5729 57.453 14.613Z" fill="black"/>
<path d="M25.1258 10.275C25.1258 8.88247 25.1316 7.48417 25.1201 6.0916C25.1201 5.82226 25.1946 5.7191 25.4754 5.72483C26.5929 5.7363 27.7104 5.7191 28.8279 5.73057C30.2319 5.74776 31.3322 6.56725 31.5615 7.83948C31.848 9.43262 31.1718 10.7106 29.5672 11.0888C29.3265 11.1461 29.3207 11.2206 29.4411 11.404C30.1402 12.4527 30.8337 13.5072 31.5271 14.5559C31.5729 14.6247 31.6646 14.6992 31.6302 14.7794C31.5844 14.8826 31.4583 14.8367 31.3724 14.8367C30.3523 14.8482 30.358 14.8482 29.8136 13.9771C29.2806 13.1289 28.7362 12.2865 28.2033 11.4384C28.1116 11.2951 28.0027 11.2263 27.8308 11.2263C27.4181 11.2321 27.0113 11.2378 26.5986 11.2263C26.3522 11.2206 26.2605 11.3066 26.2663 11.5587C26.2777 12.5215 26.272 13.49 26.272 14.4527C26.272 14.831 26.2605 14.8424 25.888 14.8424C25.0055 14.8367 25.1316 14.9571 25.1258 14.086C25.1201 12.8195 25.1258 11.5473 25.1258 10.275ZM26.2777 8.48132C26.2777 8.95697 26.2835 9.43262 26.2777 9.914C26.272 10.1203 26.3522 10.2063 26.5643 10.2063C27.3265 10.2005 28.0886 10.212 28.8508 10.2005C29.2462 10.1948 29.5958 10.0401 29.8881 9.77647C30.4211 9.29508 30.593 8.55009 30.3351 7.8624C30.0657 7.14033 29.4869 6.81941 28.7591 6.77929C28.0256 6.73918 27.2921 6.77356 26.5585 6.76783C26.3465 6.76783 26.272 6.85379 26.272 7.0601C26.2835 7.53002 26.2777 8.00567 26.2777 8.48132Z" fill="black"/>
<path d="M36.3182 11.8681C35.5445 11.8681 34.7709 11.8739 33.9972 11.8624C33.7393 11.8567 33.6648 11.9312 33.7164 12.1948C34.0087 13.7822 35.6076 14.5902 37.1377 13.9083C37.407 13.7879 37.6706 13.6504 37.8884 13.4441C38.0259 13.318 38.0947 13.3524 38.2036 13.4842C38.5933 13.977 38.5875 14.0229 38.0718 14.3667C36.7995 15.2149 35.1376 15.2263 33.917 14.3725C33.1433 13.828 32.7365 13.0544 32.6104 12.1375C32.4499 10.9512 32.7193 9.87957 33.5731 8.99704C35.023 7.50131 38.0603 7.73627 38.811 10.3781C38.9199 10.7621 38.9715 11.1633 38.9944 11.5644C39.0059 11.7822 38.9142 11.8739 38.6907 11.8681C37.9056 11.8624 37.109 11.8681 36.3182 11.8681ZM35.8081 11.1117C36.4385 11.1117 37.0689 11.1117 37.6993 11.1117C37.8425 11.1117 37.9686 11.1002 37.9457 10.8939C37.8655 10.2807 37.6305 9.74203 37.1262 9.37526C35.7852 8.38958 34.0087 9.13457 33.7049 10.7908C33.6591 11.0429 33.7336 11.1174 33.9743 11.1117C34.5875 11.1059 35.1949 11.1117 35.8081 11.1117Z" fill="black"/>
<path d="M44.7136 11.5069C44.7136 11.0198 44.7537 10.6072 44.7079 10.2003C44.6276 9.484 44.0603 9.04846 43.258 8.99688C42.4958 8.95104 41.8253 9.17454 41.2694 9.69603C41.109 9.85076 41.023 9.8393 40.8969 9.65592C40.5473 9.14015 40.5302 9.13442 41.0459 8.76766C42.1348 7.99401 43.321 7.8622 44.5531 8.33785C45.3784 8.65877 45.7566 9.35219 45.7681 10.2118C45.7852 11.6502 45.7738 13.0944 45.7795 14.5328C45.7795 14.7563 45.6936 14.848 45.4758 14.8308C45.407 14.825 45.344 14.8308 45.2752 14.8308C44.7881 14.8308 44.7881 14.8308 44.7423 14.3609C44.7365 14.3035 44.7537 14.2348 44.6907 14.2061C44.599 14.1717 44.5589 14.2634 44.5016 14.3035C43.6821 14.9626 42.7651 15.1632 41.7623 14.848C40.7135 14.5156 40.129 13.5414 40.2895 12.4583C40.4385 11.421 41.3095 10.6817 42.4041 10.6359C43.2523 10.6244 44.0316 10.825 44.7136 11.5069ZM44.7193 12.7391C44.8569 12.2634 44.5932 11.931 44.1348 11.6961C43.5503 11.3981 42.9428 11.3064 42.3067 11.5012C41.7222 11.6789 41.3325 12.1717 41.3038 12.762C41.2694 13.3408 41.6133 13.8737 42.1806 14.1144C42.7308 14.3437 43.2924 14.3093 43.8253 14.0915C44.4729 13.8164 44.8167 13.6044 44.7193 12.7391Z" fill="black"/>
<path d="M48.5072 11.4727C48.4958 12.3036 48.7078 12.9569 49.2465 13.4899C50.0545 14.2807 51.4013 14.2865 52.1921 13.4784C52.3812 13.2836 52.5016 13.2779 52.7021 13.4498C53.1606 13.8509 53.1778 13.8681 52.7365 14.2635C51.7967 15.1002 50.7021 15.1976 49.5731 14.808C48.3009 14.3667 47.6362 13.3867 47.4642 12.0859C47.2809 10.6761 47.682 9.46691 48.8797 8.61876C49.9342 7.87377 51.8884 7.79354 52.9428 9.02565C53.0804 9.18611 53.1033 9.29499 52.9314 9.42107C52.9256 9.4268 52.9199 9.43253 52.9084 9.43826C52.4729 9.82795 52.4729 9.82795 52.0316 9.44399C51.1262 8.65315 49.4757 8.97407 48.8683 10.0572C48.6047 10.5271 48.4786 11.0257 48.5072 11.4727Z" fill="black"/>
<path d="M10.9768 8.41797C12.0541 8.41797 12.9195 9.26612 12.9252 10.3378C12.931 11.3922 12.0542 12.2919 11.0112 12.3091C9.94524 12.3206 9.02832 11.4094 9.02832 10.3435C9.03405 9.28904 9.91658 8.41797 10.9768 8.41797Z" fill="black"/>
</svg>
