<svg width="125" height="16" viewBox="0 0 125 16" fill="none" xmlns="http://www.w3.org/2000/svg">
<path d="M13.5824 0.615234C10.1717 0.615234 8.04299 2.33269 7.19636 5.74341C8.4784 4.02596 9.97815 3.39703 11.6714 3.83244C12.639 4.07434 13.3405 4.77583 14.1146 5.57409C15.3724 6.85613 16.8238 8.33169 19.9926 8.33169C23.4033 8.33169 25.532 6.61423 26.3786 3.20351C25.0966 4.92097 23.5969 5.54989 21.9036 5.11448C20.936 4.87259 20.2345 4.17109 19.4604 3.37284C18.2026 2.09079 16.7512 0.615234 13.5824 0.615234ZM7.17217 8.28331C3.76144 8.28331 1.63277 10.0008 0.786133 13.4115C2.06818 11.694 3.56793 11.0651 5.26119 11.5005C6.22877 11.7424 6.93027 12.4439 7.70434 13.2422C8.96219 14.5242 10.4136 15.9998 13.5824 15.9998C16.9931 15.9998 19.1218 14.2823 19.9684 10.8716C18.6864 12.589 17.1866 13.218 15.4934 12.7826C14.5258 12.5407 13.8243 11.8392 13.0502 11.0409C11.8166 9.75887 10.3652 8.28331 7.17217 8.28331Z" fill="black"/>
<path d="M39.1754 7.0742H36.9499V11.4041C36.9499 12.5652 37.6998 12.541 39.1754 12.4685V14.2101C36.1759 14.5729 34.9906 13.7505 34.9906 11.4041V7.0742H33.3457V5.2116H34.9906V2.79265L36.9257 2.2121V5.2116H39.1512V7.0742H39.1754ZM47.6901 5.2116H49.6252V14.2101H47.6901V12.9039C47.0128 13.8473 45.9484 14.4278 44.5454 14.4278C42.1023 14.4278 40.0704 12.3475 40.0704 9.68666C40.0704 7.00163 42.1023 4.94552 44.5454 4.94552C45.9484 4.94552 47.0128 5.52607 47.6901 6.46946V5.2116ZM44.8357 12.5894C46.4564 12.5894 47.6901 11.3799 47.6901 9.71085C47.6901 8.04178 46.4564 6.8323 44.8357 6.8323C43.215 6.8323 41.9814 8.04178 41.9814 9.71085C42.0056 11.3799 43.215 12.5894 44.8357 12.5894ZM52.8666 3.85699C52.1893 3.85699 51.633 3.27644 51.633 2.62333C51.633 1.94602 52.1893 1.38966 52.8666 1.38966C53.544 1.38966 54.1003 1.94602 54.1003 2.62333C54.1245 3.27644 53.544 3.85699 52.8666 3.85699ZM51.8991 14.2101V5.2116H53.8342V14.2101H51.8991ZM56.0839 14.2101V1.0752H58.019V14.2101H56.0839ZM70.6701 5.2116H72.7262L69.8961 14.2101H67.9851L66.1225 8.13853L64.2357 14.2101H62.3247L59.4946 5.2116H61.5507L63.2923 11.4283L65.1791 5.2116H67.0417L68.9043 11.4283L70.6701 5.2116ZM75.121 3.85699C74.4437 3.85699 73.8873 3.27644 73.8873 2.62333C73.8873 1.94602 74.4437 1.38966 75.121 1.38966C75.7983 1.38966 76.3547 1.94602 76.3547 2.62333C76.3789 3.27644 75.8225 3.85699 75.121 3.85699ZM74.1534 14.2101V5.2116H76.0886V14.2101H74.1534ZM83.0794 4.96971C85.0871 4.96971 86.5385 6.34851 86.5385 8.67071V14.2101H84.6033V8.88841C84.6033 7.50961 83.805 6.80811 82.5956 6.80811C81.3135 6.80811 80.2976 7.55799 80.2976 9.39639V14.2343H78.3624V5.23579H80.2976V6.39689C80.9023 5.42931 81.8699 4.96971 83.0794 4.96971ZM95.7789 1.60736H97.714V14.2101H95.7789V12.9039C95.1015 13.8473 94.0372 14.4278 92.6342 14.4278C90.1911 14.4278 88.1592 12.3475 88.1592 9.68666C88.1592 7.00163 90.1911 4.94552 92.6342 4.94552C94.0372 4.94552 95.1015 5.52607 95.7789 6.46946V1.60736ZM92.9245 12.5894C94.5452 12.5894 95.7789 11.3799 95.7789 9.71085C95.7789 8.04178 94.5452 6.8323 92.9245 6.8323C91.3038 6.8323 90.0701 8.04178 90.0701 9.71085C90.0701 11.3799 91.3038 12.5894 92.9245 12.5894ZM104.221 14.452C101.512 14.452 99.4557 12.3717 99.4557 9.71085C99.4557 7.02582 101.488 4.96971 104.221 4.96971C105.987 4.96971 107.511 5.88891 108.236 7.2919L106.567 8.25948C106.18 7.41285 105.285 6.88068 104.197 6.88068C102.6 6.88068 101.415 8.09016 101.415 9.71085C101.415 11.3316 102.624 12.541 104.197 12.541C105.285 12.541 106.156 11.9847 106.592 11.1622L108.261 12.1056C107.535 13.5328 105.987 14.452 104.221 14.452ZM111.502 7.67893C111.502 9.32382 116.34 8.33205 116.34 11.6702C116.34 13.4602 114.768 14.452 112.832 14.452C111.042 14.452 109.736 13.6296 109.156 12.3475L110.825 11.3799C111.115 12.2024 111.841 12.6862 112.832 12.6862C113.703 12.6862 114.356 12.3959 114.356 11.6702C114.356 10.0737 109.518 10.9687 109.518 7.7515C109.518 6.05824 110.97 4.9939 112.808 4.9939C114.284 4.9939 115.517 5.67121 116.146 6.85649L114.502 7.77569C114.187 7.0742 113.558 6.75973 112.808 6.75973C112.107 6.73554 111.502 7.05001 111.502 7.67893ZM119.799 7.67893C119.799 9.32382 124.637 8.33205 124.637 11.6702C124.637 13.4602 123.065 14.452 121.129 14.452C119.339 14.452 118.033 13.6296 117.453 12.3475L119.122 11.3799C119.412 12.2024 120.138 12.6862 121.129 12.6862C122 12.6862 122.653 12.3959 122.653 11.6702C122.653 10.0737 117.816 10.9687 117.816 7.7515C117.816 6.05824 119.267 4.9939 121.105 4.9939C122.581 4.9939 123.815 5.67121 124.443 6.85649L122.799 7.77569C122.484 7.0742 121.855 6.75973 121.105 6.75973C120.404 6.73554 119.799 7.05001 119.799 7.67893Z" fill="black"/>
</svg>
