<svg width="24" height="20" viewBox="0 0 24 20" fill="none" xmlns="http://www.w3.org/2000/svg">
<path fill-rule="evenodd" clip-rule="evenodd" d="M11.8406 6.15295C10.884 0.997195 16.9336 -2.08034 20.4926 1.64277C20.4926 1.64277 22.0869 1.18291 23.4829 0.272029C23.4829 0.272029 22.9745 2.03188 21.2596 3.14616C21.2596 3.14616 23.1727 2.88086 24 2.35909C24 2.35909 23.1727 4.11895 21.6474 4.77336C22.4661 16.6059 10.0567 23.7869 0 17.9059C0 17.9059 4.96373 18.1712 7.06643 15.6862C7.06643 15.6862 4.00718 15.9515 2.48187 12.1577C2.48187 12.1577 3.62801 12.6175 4.77415 12.025C4.77415 12.025 1.20646 11.4414 0.887612 7.06383C0.887612 7.06383 2.03375 7.97471 3.30916 7.6475C3.30916 7.6475 -0.637702 5.23322 1.59425 0.855699C1.59425 0.864543 5.79102 6.3475 11.8406 6.15295Z" fill="black"/>
</svg>
