<svg width="87" height="20" viewBox="0 0 87 20" fill="none" xmlns="http://www.w3.org/2000/svg">
<path d="M19.0263 0.769531H1.59787C1.10021 0.769531 0.696777 1.17296 0.696777 1.67063V19.0991C0.696777 19.5968 1.10021 20.0002 1.59787 20.0002H19.0263C19.524 20.0002 19.9274 19.5968 19.9274 19.0991V1.67063C19.9274 1.17296 19.524 0.769531 19.0263 0.769531Z" fill="black"/>
<path fill-rule="evenodd" clip-rule="evenodd" d="M11.4524 12.5368V14.6489C11.835 14.8384 12.2428 14.9717 12.6632 15.0448C13.1491 15.1348 13.6423 15.179 14.1363 15.177C14.6178 15.1793 15.0983 15.1306 15.5696 15.0317C15.9928 14.946 16.3965 14.7826 16.7606 14.5498C17.0985 14.331 17.3771 14.0315 17.5712 13.6782C17.919 12.9466 17.9649 12.1069 17.6989 11.3416C17.5867 11.0554 17.4194 10.7941 17.2067 10.5726C16.9784 10.3371 16.7191 10.1339 16.4359 9.96883C16.1098 9.77732 15.7711 9.60848 15.422 9.46351C15.1474 9.34922 14.9003 9.23815 14.6807 9.1303C14.4856 9.03661 14.2988 8.92628 14.1226 8.80053C13.9845 8.70346 13.8646 8.58274 13.7684 8.44391C13.6852 8.31785 13.6419 8.16957 13.6441 8.01844C13.6423 7.87935 13.681 7.74274 13.7553 7.62534C13.8361 7.50246 13.9439 7.39978 14.0704 7.32517C14.225 7.23386 14.3933 7.16808 14.5688 7.13034C14.7842 7.08234 15.0044 7.05924 15.225 7.06149C15.4106 7.06213 15.5959 7.07547 15.7796 7.10142C15.9781 7.12833 16.1744 7.16905 16.3672 7.22328C16.5633 7.2778 16.7552 7.34683 16.9411 7.42981C17.1215 7.51047 17.2941 7.60773 17.4566 7.72034V5.7493C17.1183 5.62092 16.7674 5.52861 16.4098 5.47392C15.9779 5.4109 15.5419 5.3812 15.1056 5.38511C14.6286 5.38253 14.153 5.43684 13.6888 5.54689C13.2692 5.64305 12.8702 5.81398 12.5108 6.05153C12.177 6.27457 11.9014 6.57463 11.707 6.92655C11.5011 7.31737 11.3992 7.75487 11.4112 8.19675C11.396 8.7811 11.5879 9.35193 11.9528 9.80774C12.4004 10.3131 12.965 10.7006 13.5968 10.9361C13.8851 11.0554 14.1539 11.1723 14.4033 11.2865C14.6284 11.387 14.8447 11.506 15.05 11.6425C15.2156 11.7505 15.361 11.8868 15.4797 12.0452C15.584 12.1889 15.6394 12.3625 15.6375 12.5402C15.6385 12.6734 15.6044 12.8045 15.5387 12.9202C15.4657 13.0446 15.3631 13.1489 15.2401 13.2238C15.0862 13.318 14.9178 13.3859 14.7417 13.4249C14.5124 13.4763 14.2779 13.5006 14.043 13.4972C13.5819 13.4963 13.1245 13.4148 12.6914 13.2562C12.2389 13.0924 11.8193 12.8488 11.4524 12.5368ZM7.91446 7.27835H10.6602V5.53863H3.00439V7.27835H5.73778V15.0262H7.91446V7.27835Z" fill="white"/>
<path d="M33.3064 4.38182H30.1639V14.1158H28.8801V4.38182H25.7568V3.23214H33.3064V4.38182ZM39.2273 6.33628L35.6441 15.3613C35.0118 16.9708 34.1112 17.7756 32.9615 17.7756C32.6358 17.7756 32.3675 17.7373 32.1567 17.6798V16.5684C32.425 16.6642 32.6741 16.7026 32.8849 16.7026C33.5172 16.7026 33.9771 16.3193 34.3028 15.572L34.916 14.0966L31.8885 6.33628H33.2681L35.3758 12.3146C35.395 12.3913 35.4525 12.5829 35.5291 12.9086H35.5674C35.5866 12.7937 35.6441 12.602 35.7207 12.3338L37.9243 6.33628H39.2273ZM41.2584 12.9853H41.22V17.6798H39.9746V6.33628H41.22V7.69673H41.2584C41.8715 6.66202 42.7721 6.14467 43.941 6.14467C44.9373 6.14467 45.723 6.48957 46.2786 7.17938C46.8343 7.86919 47.1217 8.80809 47.1217 9.97694C47.1217 11.2799 46.796 12.3146 46.1637 13.1002C45.5313 13.8859 44.6691 14.2691 43.5769 14.2691C42.5997 14.3074 41.814 13.8667 41.2584 12.9853ZM41.2392 9.86197V10.9542C41.2392 11.6057 41.45 12.1422 41.8715 12.5829C42.2931 13.0236 42.8104 13.2535 43.4619 13.2535C44.2092 13.2535 44.8032 12.9661 45.2439 12.3913C45.6655 11.8164 45.8763 11.0116 45.8763 9.97694C45.8763 9.11467 45.6846 8.42487 45.2823 7.94583C44.8799 7.44764 44.3433 7.2177 43.6535 7.2177C42.9254 7.2177 42.3506 7.4668 41.9099 7.96499C41.45 8.46319 41.2392 9.09551 41.2392 9.86197ZM54.748 10.5326H49.2678C49.287 11.3949 49.5169 12.0655 49.9576 12.5446C50.3983 13.0236 51.0115 13.2535 51.7971 13.2535C52.6785 13.2535 53.4833 12.9661 54.2114 12.3913V13.5601C53.5216 14.0583 52.621 14.3074 51.5097 14.3074C50.4175 14.3074 49.5552 13.9625 48.9229 13.2535C48.2906 12.5446 47.984 11.5482 47.984 10.2835C47.984 9.07635 48.3289 8.07996 49.0187 7.33267C49.7085 6.56622 50.5516 6.18299 51.5672 6.18299C52.5827 6.18299 53.3683 6.50873 53.924 7.17938C54.4797 7.83086 54.7671 8.75061 54.7671 9.91945L54.748 10.5326ZM53.4641 9.47874C53.4641 8.75061 53.2917 8.19493 52.9468 7.79254C52.6019 7.39015 52.1229 7.19854 51.5289 7.19854C50.9348 7.19854 50.4367 7.40931 50.0343 7.83086C49.6319 8.25241 49.3636 8.80809 49.2678 9.47874H53.4641ZM55.3611 13.7326V12.8703C56.1467 13.3685 56.9324 13.6176 57.7371 13.6176C58.5802 13.6176 59.2317 13.4451 59.6724 13.0811C60.1131 12.717 60.3239 12.238 60.3239 11.6057C60.3239 11.05 60.1706 10.6093 59.8832 10.2644C59.5958 9.93861 58.9443 9.47874 57.9671 8.9039C56.8557 8.25241 56.1659 7.7159 55.8785 7.29435C55.5911 6.85364 55.4378 6.35544 55.4378 5.79976C55.4378 5.03331 55.7443 4.38182 56.3383 3.8453C56.9324 3.30879 57.7371 3.04053 58.7335 3.04053C59.385 3.04053 60.0365 3.1555 60.6688 3.36627V4.15189C60.0365 3.86447 59.3467 3.71117 58.6186 3.71117C57.8713 3.71117 57.2964 3.90279 56.8557 4.26685C56.415 4.65008 56.2042 5.10995 56.2042 5.68479C56.2042 6.24047 56.3575 6.68118 56.6449 7.00693C56.9324 7.33267 57.5838 7.79254 58.5611 8.34822C59.5766 8.92306 60.2473 9.44042 60.5922 9.88113C60.9371 10.3218 61.0904 10.8392 61.0904 11.4332C61.0904 12.2763 60.8029 12.9469 60.2281 13.4835C59.6533 14.02 58.8293 14.2691 57.7755 14.2691C57.3922 14.2691 56.9707 14.2116 56.4725 14.0966C55.9743 13.9817 55.6102 13.8859 55.3611 13.7326ZM67.5669 13.7709C66.9921 14.1158 66.3023 14.3074 65.4975 14.3074C64.4436 14.3074 63.5813 13.9433 62.9299 13.2152C62.2784 12.4871 61.9526 11.5482 61.9526 10.3602C61.9526 9.13384 62.3167 8.11828 63.0448 7.33267C63.773 6.54705 64.7119 6.14467 65.8615 6.14467C66.4555 6.14467 67.0304 6.25963 67.5861 6.50873V7.29435C67.0304 6.94944 66.4172 6.77699 65.7657 6.77699C64.846 6.77699 64.1179 7.10273 63.543 7.75422C62.9682 8.40571 62.6999 9.26797 62.6999 10.3027C62.6999 11.3182 62.9682 12.123 63.4855 12.7362C64.0029 13.3493 64.6927 13.6559 65.5358 13.6559C66.3214 13.6559 66.9921 13.4451 67.5669 13.0428V13.7709ZM72.2039 7.06441C71.974 6.89196 71.7058 6.81531 71.38 6.81531C70.7668 6.81531 70.2495 7.14106 69.8471 7.77338C69.4256 8.4057 69.2339 9.30629 69.2339 10.4751V14.1349H68.5441V6.33628H69.2339V8.0608H69.2723C69.4447 7.4668 69.7321 7.00693 70.1154 6.68118C70.4986 6.35544 70.9393 6.18299 71.4567 6.18299C71.7441 6.18299 72.0123 6.22131 72.2231 6.31712V7.06441H72.2039ZM73.3153 4.38182C73.162 4.38182 73.0279 4.32434 72.9129 4.20937C72.798 4.0944 72.7405 3.96027 72.7405 3.78782C72.7405 3.61537 72.798 3.48124 72.9129 3.38543C73.0279 3.28962 73.162 3.23214 73.3153 3.23214C73.4686 3.23214 73.6027 3.28962 73.7369 3.38543C73.8518 3.48124 73.9093 3.61537 73.9093 3.78782C73.9093 3.94111 73.8518 4.0944 73.7369 4.20937C73.6027 4.32434 73.4686 4.38182 73.3153 4.38182ZM72.9704 14.1158V6.33628H73.6602V14.1158H72.9704ZM76.0554 12.7362H76.0171V17.699H75.3272V6.33628H76.0171V7.94583H76.0554C76.3428 7.37099 76.726 6.93028 77.2434 6.6237C77.7607 6.31712 78.3356 6.16383 78.9487 6.16383C79.9451 6.16383 80.7116 6.50873 81.2673 7.17938C81.8229 7.86919 82.0912 8.78893 82.0912 9.95777C82.0912 11.2607 81.7655 12.3146 81.1331 13.1194C80.5008 13.9242 79.6577 14.3266 78.623 14.3266C77.4733 14.3074 76.6111 13.79 76.0554 12.7362ZM76.0171 9.84281V10.82C76.0171 11.6057 76.2662 12.2763 76.7452 12.832C77.2434 13.3877 77.8757 13.6751 78.6805 13.6751C79.4661 13.6751 80.1176 13.3302 80.6158 12.6595C81.114 11.9697 81.3631 11.0883 81.3631 9.97694C81.3631 8.99971 81.1331 8.23325 80.6733 7.65841C80.2134 7.08357 79.6194 6.79615 78.8529 6.79615C77.9524 6.79615 77.2434 7.10273 76.7452 7.7159C76.247 8.32906 76.0171 9.01887 76.0171 9.84281ZM86.3259 14.0008C85.9618 14.1733 85.6169 14.2499 85.3103 14.2499C84.1606 14.2499 83.5858 13.5601 83.5858 12.1805V6.98777H82.187V6.35544H83.5858V4.32434L83.9307 4.20937L84.2756 4.0944V6.35544H86.3259V6.98777H84.2756V12.123C84.2756 12.6595 84.3522 13.0428 84.5247 13.2918C84.6971 13.5409 84.9846 13.6559 85.387 13.6559C85.6744 13.6559 85.981 13.5601 86.3259 13.3685V14.0008Z" fill="black"/>
</svg>
